<svg width="25" height="25" viewBox="0 0 25 25" fill="none" xmlns="http://www.w3.org/2000/svg">
<rect width="25" height="25" rx="12.5" fill="#CAD0D5"/>
<path fill-rule="evenodd" clip-rule="evenodd" d="M16.3659 24.39C15.1484 24.7859 13.849 25 12.5 25C11.1501 25 9.84988 24.7857 8.63165 24.3892C9.1944 24.4566 9.40234 24.0902 9.40234 23.7739C9.40234 23.6362 9.39999 23.3933 9.39685 23.0683C9.39321 22.6923 9.38851 22.2065 9.38515 21.6466C5.90781 22.4026 5.17422 19.9697 5.17422 19.9697C4.60625 18.525 3.78672 18.1403 3.78672 18.1403C2.65156 17.364 3.87265 17.3797 3.87265 17.3797C5.12656 17.4681 5.78672 18.6689 5.78672 18.6689C6.90234 20.5804 8.7125 20.0285 9.425 19.7079C9.53828 18.8996 9.86172 18.3482 10.2187 18.0356C7.44297 17.7198 4.525 16.6472 4.525 11.854C4.525 10.4882 5.01172 9.37189 5.81172 8.49701C5.68281 8.18047 5.2539 6.90923 5.93359 5.18693C5.93359 5.18693 6.98359 4.85072 9.37109 6.46907C10.3687 6.19146 11.4375 6.05324 12.5008 6.04759C13.5625 6.05304 14.632 6.19146 15.6305 6.46907C18.0164 4.85072 19.0641 5.18693 19.0641 5.18693C19.7461 6.90923 19.3172 8.18047 19.1883 8.49701C19.9898 9.37189 20.4734 10.4882 20.4734 11.854C20.4734 16.6588 17.5508 17.7167 14.7664 18.0262C15.2148 18.4125 15.6148 19.1754 15.6148 20.3427C15.6148 21.4609 15.6079 22.4344 15.6032 23.0794C15.6009 23.399 15.5992 23.638 15.5992 23.7741C15.5992 24.0919 15.8021 24.459 16.3659 24.39Z" fill="white"/>
</svg>
