<?xml version="1.0" encoding="utf-8"?>
<!-- Generator: Adobe Illustrator 22.0.0, SVG Export Plug-In . SVG Version: 6.00 Build 0)  -->
<svg version="1.1" id="Isolation_Mode" xmlns="http://www.w3.org/2000/svg" xmlns:xlink="http://www.w3.org/1999/xlink" x="0px"
	 y="0px" viewBox="0 0 300 300" style="enable-background:new 0 0 300 300;" xml:space="preserve">
<style type="text/css">
	.st0{fill:#FF6F78;}
</style>
<path class="st0" d="M283.1,120.6c0-0.3,0-0.6,0-0.8c0-0.3,0-0.6,0-0.9c0-32.5-26.3-58.8-58.8-58.8c-13.5,0-22.8,4.6-32.7,12.2
	c-12.7-3.7-19-6.9-36.2-7.8h-10.8c-17.2,0.9-23.5,4.1-36.2,7.8C98.5,64.6,89.2,60,75.7,60c-32.5,0-58.8,26.3-58.8,58.8
	c0,0.3,0,0.6,0,0.9c0,0.3,0,0.5,0,0.8l-6.1,96.2c0,15.2,12.3,27.5,27.5,27.5h19.2L99,178.1h45.6h10.8H201l41.5,66.1h19.2
	c15.2,0,27.5-12.3,27.5-27.5L283.1,120.6z M87.6,138.4H69.7v17.9H50.9v-17.9H33.1v-18.8h17.9v-17.9h18.8v17.9h17.9V138.4z
	 M231.7,92.9c7.1,0,12.8,5.7,12.8,12.8s-5.7,12.8-12.8,12.8s-12.8-5.7-12.8-12.8S224.6,92.9,231.7,92.9z M198.3,126.3
	c0-7.1,5.7-12.8,12.8-12.8c7.1,0,12.8,5.7,12.8,12.8c0,7.1-5.7,12.8-12.8,12.8C204,139.1,198.3,133.3,198.3,126.3z M231.7,159.7
	c-7.1,0-12.8-5.7-12.8-12.8c0-7.1,5.7-12.8,12.8-12.8c7.1,0,12.8,5.7,12.8,12.8C244.5,153.9,238.7,159.7,231.7,159.7z M252.3,139.1
	c-7.1,0-12.8-5.7-12.8-12.8c0-7.1,5.7-12.8,12.8-12.8c7.1,0,12.8,5.7,12.8,12.8C265.1,133.4,259.3,139.1,252.3,139.1z"/>
</svg>
