<?xml version="1.0" encoding="utf-8"?>
<!-- Generator: Adobe Illustrator 22.0.0, SVG Export Plug-In . SVG Version: 6.00 Build 0)  -->
<svg version="1.1" id="Слой_1" xmlns="http://www.w3.org/2000/svg" xmlns:xlink="http://www.w3.org/1999/xlink" x="0px" y="0px"
	 viewBox="0 0 222 216" style="enable-background:new 0 0 222 216;" xml:space="preserve">
<style type="text/css">
	.st0{display:none;}
	.st1{display:inline;fill:#BABABA;}
	.st2{display:inline;fill:#F86464;}
	.st3{display:inline;}
	.st4{fill:#263357;}
	.st5{fill:#F86464;}
	.st6{fill:#BABABA;}
	.st7{fill:#FFFFFF;}
	.st8{display:inline;fill:none;}
	.st9{font-family:'Calibri-Bold';}
	.st10{font-size:12px;}
</style>
<g class="st0">
	<path class="st1" d="M97.2,132.6c-0.7,1.2-1.9,2-3.5,2H47.9c-2.3,0-4.1-1.8-4.1-4.1v-29.8c0-2.3,1.8-4.1,4.1-4.1h23.8
		c1.3,0,2.5,0.6,3.3,1.7l8.8,11.9l3.5,4.7l0.5,0.7v17H97.2z"/>
	<path class="st2" d="M125.6,41.5c-4.4,0.1-7.9,3.8-7.8,8.2c0.1,4.4,3.8,7.9,8.2,7.8c4.4-0.1,7.9-3.8,7.8-8.2
		C133.7,44.9,130.1,41.4,125.6,41.5z"/>
	<path class="st2" d="M166.8,91.5c-3.3,0.1-5.8,2.8-5.8,6c0.1,3.3,2.8,5.8,6,5.8c3.3-0.1,5.8-2.8,5.8-6
		C172.8,94,170.1,91.4,166.8,91.5z"/>
	<g class="st3">
		<path class="st4" d="M41.8,100.7v29.8c0,3.4,2.7,6.1,6.1,6.1h27.9v8h-32c-1.1,0-2,0.9-2,2c0,1.1,0.9,2,2,2h92c1.1,0,2-0.9,2-2
			c0-1.1-0.9-2-2-2h-30v-8h16c3.3,0,6-2.7,6-6v-10.3c0-14.4-9.7-26.6-22.9-30.5l21-29.9l33.1,37.6v0.1c0,0.4,0.1,0.8,0.1,1.3
			l-1.6,0.5c-0.9,0.3-1.4,1-1.4,1.9v26l-5.9,6.3c-0.5,0.6-0.7,1.4-0.4,2.2c0.3,0.7,1,1.2,1.8,1.2h4.1c13.6,0,25.2-10.2,26.5-23.2
			c0.3-2.6,0.1-5.2-0.4-7.6c-0.9-4.3-3-8.1-5.9-11.1c-0.4-0.4-1-0.7-1.7-0.6c-0.4-1.1-1.1-2-1.9-2.9c-0.9-0.9-2-1.5-3.2-1.8
			L135.8,47c-0.1-0.2-0.3-0.3-0.4-0.4c-1.3-4.2-5.2-7.3-9.8-7.2c-3.4,0.1-6.4,1.9-8.1,4.5c0,0,0,0,0,0L72.6,94.7
			c-0.3,0-0.6-0.1-0.8-0.1H47.9C44.6,94.6,41.8,97.4,41.8,100.7z M85.8,136.6h7.9h8.1v8h-22v-8H85.8z M123.8,120.3v10.3
			c0,1.1-0.9,2-2,2H99.5H87.8V119v-4.9v-1.9v-5.1V94.8c0-1.2,1-2.2,2.2-2.2h6.2c0.6,0,1.2,0,1.8,0.1c1.5,0.1,3,0.3,4.4,0.7
			C114.7,96.2,123.8,107.2,123.8,120.3z M178,107c0.4,2,0.6,4.1,0.3,6.3c-1.1,10.8-10.7,19.4-22,19.6l3.3-3.5
			c0.3-0.4,0.5-0.8,0.5-1.4v-25.3l0.8-0.2c0.8,0.9,1.8,1.7,2.9,2.2l0,0v6.9c0,1.1,0.9,2,2,2c1.1,0,2-0.9,2-2v-6.3
			c3.2-0.4,5.9-2.7,6.7-5.7C176.2,101.7,177.4,104.2,178,107z M169.7,94.6c0.3,0.3,0.6,0.7,0.8,1.1c0.1,0.1,0.1,0.3,0.2,0.4
			c0.1,0.4,0.2,0.8,0.2,1.2v0.1c0,0.4-0.1,0.9-0.2,1.3c-0.2,0.5-0.4,0.9-0.7,1.3c-0.6,0.7-1.5,1.2-2.4,1.3c-0.1,0-0.3,0-0.4,0H167
			c-0.4,0-0.8-0.1-1.2-0.2c-0.3-0.1-0.6-0.2-0.8-0.4c-1.1-0.6-1.8-1.7-1.9-3c0-0.1,0-0.2,0-0.2c0-0.4,0-0.9,0.2-1.3
			c0.2-0.6,0.5-1.1,0.9-1.5c0.7-0.8,1.7-1.2,2.7-1.2h0.1C168,93.5,168.9,93.9,169.7,94.6z M164.3,90c-1.1,0.4-2.2,1.1-3,2
			c-0.3,0.3-0.6,0.7-0.8,1.1L130,58.6c2.4-1.1,4.3-3.2,5.2-5.8L164.3,90z M125.7,43.5h0.2c2.7,0,5.1,1.9,5.8,4.4
			c0.1,0.5,0.2,1,0.2,1.5c0,0.3,0,0.7-0.1,1l-0.1,0.1c0,0,0,0.1,0,0.1c-0.2,1.2-0.7,2.2-1.6,3.1c-1.1,1.2-2.6,1.8-4.2,1.9
			c-0.1,0-0.3,0-0.4,0c-0.4,0-0.9-0.1-1.3-0.2c-0.3-0.1-0.7-0.2-1-0.3c-0.6-0.3-1.1-0.7-1.6-1.1c-1.2-1.1-1.8-2.6-1.9-4.2
			c0-1.2,0.3-2.3,0.8-3.2c0.7-1.2,1.9-2.2,3.2-2.6C124.5,43.6,125.1,43.5,125.7,43.5z M116.1,51.6c0.4,1.9,1.4,3.7,2.9,5.1
			c0.9,0.8,1.9,1.5,3,2L100.6,89c-1.5-0.2-3-0.3-4.5-0.3H90c-3.4,0-6.2,2.8-6.2,6.2v12l-7.2-9.7c-0.1-0.2-0.3-0.3-0.4-0.5
			L116.1,51.6z M71.8,98.6c0.7,0,1.3,0.3,1.7,0.9l0.1,0.1l10,13.6l0.3,0.3v6.3v12.8h-6H47.9c-1.2,0-2.1-0.9-2.1-2.1v-29.8
			c0-1.2,0.9-2.1,2.1-2.1h21.2H71.8z"/>
		<path class="st4" d="M98,94.7c-0.6,0-1.1,0.2-1.5,0.5c-0.4,0.4-0.6,0.9-0.6,1.5v6v5.8c0,5.6,4.5,10.1,10.1,10.1h13.6
			c0.6,0,1.1-0.3,1.5-0.7c0.4-0.4,0.5-1,0.5-1.6c-1.6-10.6-9.9-19.1-20.3-21.2C100.1,94.9,99.1,94.8,98,94.7z M117.1,114.6h-11.2
			c-3.3,0-6.1-2.7-6.1-6.1V99C108.1,100.4,114.9,106.6,117.1,114.6z"/>
		<path class="st4" d="M53.8,112.6h8.8h6.5h0.8c1.1,0,2-0.9,2-2c0-1.1-0.9-2-2-2h-4.2h-5.3h-6.5c-1.1,0-2,0.9-2,2
			C51.8,111.7,52.7,112.6,53.8,112.6z"/>
		<path class="st4" d="M53.8,122.6h16c1.1,0,2-0.9,2-2c0-0.3-0.1-0.6-0.2-0.9c-0.3-0.5-0.8-0.9-1.4-1.1c-0.1,0-0.3-0.1-0.4-0.1h-16
			c-1.1,0-2,0.9-2,2C51.8,121.7,52.7,122.6,53.8,122.6z"/>
		<path class="st4" d="M35.8,116.6c1.1,0,2-0.9,2-2v-13.9c0-5.6,4.5-10.1,10.1-10.1c1.1,0,2-0.9,2-2c0-1.1-0.9-2-2-2
			c-7.8,0-14.1,6.3-14.1,14.1v13.9C33.8,115.7,34.7,116.6,35.8,116.6z"/>
		<circle class="st4" cx="53.8" cy="88.6" r="2.3"/>
		<circle class="st4" cx="159.8" cy="142.6" r="2.3"/>
		<circle class="st4" cx="169.6" cy="80.3" r="2.3"/>
		<path class="st4" d="M164.6,77.1c0.4,0.5,1,0.8,1.6,0.8c0.4,0,0.9-0.1,1.2-0.4c0.9-0.7,1-1.9,0.3-2.8l-21-27
			c-0.7-0.9-1.9-1-2.8-0.3c-0.9,0.7-1,1.9-0.3,2.8L164.6,77.1z"/>
		<path class="st4" d="M189.8,166.6h-52l0,0c1.3-1.7,2-3.8,2-6c0-5.5-4.5-10-10-10h-78c-5.5,0-10,4.5-10,10c0,2.3,0.8,4.3,2,6l0,0
			h-12c-1.1,0-2,0.9-2,2c0,1.1,0.9,2,2,2h158c1.1,0,2-0.9,2-2C191.8,167.5,190.9,166.6,189.8,166.6z M51.8,154.6h78c3.3,0,6,2.7,6,6
			c0,3.3-2.7,6-6,6h-78c-3.3,0-6-2.7-6-6C45.8,157.3,48.5,154.6,51.8,154.6z"/>
		<circle class="st4" cx="165.8" cy="176.6" r="2.3"/>
		<path class="st4" d="M159.8,174.6h-102c-1.1,0-2,0.9-2,2c0,1.1,0.9,2,2,2h102c1.1,0,2-0.9,2-2
			C161.8,175.5,160.9,174.6,159.8,174.6z"/>
		<path class="st4" d="M165.3,139.6c-1.1,0.3-1.7,1.4-1.4,2.5c0.2,0.9,1,1.5,1.9,1.5c0.2,0,0.3,0,0.5-0.1
			c13.2-3.6,22.9-14.8,24.2-27.9c0.1-1.1-0.7-2.1-1.8-2.2c-1.1-0.1-2.1,0.7-2.2,1.8C185.4,126.7,176.9,136.5,165.3,139.6z"/>
		<circle class="st4" cx="55.8" cy="160.6" r="2.3"/>
		<circle class="st4" cx="65.8" cy="160.6" r="2.3"/>
		<circle class="st4" cx="75.8" cy="160.6" r="2.3"/>
		<circle class="st4" cx="85.8" cy="160.6" r="2.3"/>
		<circle class="st4" cx="95.8" cy="160.6" r="2.3"/>
		<circle class="st4" cx="105.8" cy="160.6" r="2.3"/>
		<circle class="st4" cx="115.8" cy="160.6" r="2.3"/>
		<circle class="st4" cx="125.8" cy="160.6" r="2.3"/>
	</g>
</g>
<g class="st0">
	<g class="st3">
		<path class="st5" d="M171.5,112.3l-0.1,10.2l-11.5-5.8l-11.6,5.6l0.1-10.2l0,0c-3.1,0.8-7.2,2.5-10.1,5.3
			c10.1,5.9,17.1,17.2,18,29.6c-0.2,0.2-0.4,0.4-0.7,0.6c0.9,0,2.1,0,3.9,0c12.4-0.2,23.8-4.2,32.8-11.4
			C191.6,125.3,184,114.7,171.5,112.3z"/>
		<path class="st5" d="M49.6,112.3l0.1,10.2l11.5-5.8l11.6,5.6L72.7,112l0,0c3.1,0.8,7.2,2.5,10.1,5.3c-10.1,5.9-17.1,17.2-18,29.6
			c0.2,0.2,0.4,0.4,0.7,0.6c-0.9,0-2.1,0-3.9,0c-12.4-0.2-23.8-4.2-32.8-11.4C29.4,125.3,37.1,114.7,49.6,112.3z"/>
		<g>
			<path class="st5" d="M69.9,146.5c0.9-14.5,11.8-26.3,25.8-28.8c0.2,0,0.3-0.1,0.4-0.1l-0.3,0.1l1.1,12.6l13.8-7.1h-0.3l13.8,7.1
				l0.9-8.9l0.3-3.6c14,2.5,24.7,14.1,25.8,28.4c-10.9,9.6-25.2,15.4-40.8,15.4c0,0-0.1,0-0.1,0C95,161.5,80.8,155.9,69.9,146.5
				L69.9,146.5z"/>
		</g>
	</g>
	<g class="st3">
		<g>
			<path class="st4" d="M61.3,149.5c-12.2,0-24.1-4.2-33.6-11.8c-0.5-0.4-0.8-1-0.7-1.7c0.8-12.7,10.1-23.3,22.5-25.6
				c0.6-0.1,1.2,0,1.6,0.4c0.5,0.4,0.7,0.9,0.7,1.5l0.1,7l8.6-4.3c0.6-0.3,1.2-0.3,1.8,0l8.7,4.2l-0.1-7c0-0.8,0.5-1.5,1.2-1.9
				c0.4-0.2,0.9-0.2,1.4-0.1c6.3,1.1,11.9,4.6,15,9.4c0.6,0.9,0.3,2.2-0.6,2.8c-0.9,0.6-2.2,0.3-2.8-0.6c-1.7-2.7-5.2-5.8-10.2-7.2
				l0.1,7.7c0,0.7-0.3,1.3-0.9,1.7c-0.6,0.4-1.3,0.4-1.9,0.1L61.4,119l-10.6,5.4c-0.6,0.3-1.4,0.3-1.9-0.1c-0.6-0.4-1-1-1-1.7
				l-0.1-7.7c-10.4,3.1-15.9,12.3-16.8,20.4c8.7,6.7,19.6,10.4,30.6,10.3c2.2,0,4.6-0.2,7.1-0.5c1.1-0.1,2.1,0.7,2.2,1.8
				c0.1,1.1-0.7,2.1-1.8,2.2c-2.7,0.3-5.2,0.4-7.5,0.5C61.6,149.5,61.5,149.5,61.3,149.5z"/>
		</g>
		<g>
			<path class="st4" d="M160,150.9c-0.1,0-0.3,0-0.4,0c-3,0-6.3-0.3-9.9-0.8c-1.1-0.1-1.9-1.1-1.7-2.2c0.1-1.1,1.2-1.9,2.2-1.7
				c3.4,0.4,6.6,0.7,9.4,0.7c0.1,0,0.2,0,0.4,0c10.9,0,21.6-3.6,30.3-10.3c-0.9-8.1-6.4-17.3-16.8-20.4l-0.1,7.7
				c0,0.7-0.4,1.3-1,1.7c-0.6,0.4-1.3,0.4-1.9,0.1l-10.6-5.4l-10.7,5.1c-0.6,0.3-1.4,0.3-1.9-0.1c-0.6-0.4-0.9-1-0.9-1.7l0.1-7.7
				c-5.3,1.5-8.3,4.7-9.5,6.2c-0.7,0.9-1.9,1-2.8,0.3c-0.9-0.7-1-1.9-0.3-2.8c3.3-4.2,8.5-7.2,14.2-8.1c0.4-0.1,0.8-0.1,1.2,0.1
				c0.7,0.3,1.2,1,1.2,1.8l-0.1,7l8.7-4.2c0.6-0.3,1.2-0.3,1.8,0l8.6,4.3l0.1-7c0-0.6,0.3-1.2,0.7-1.5c0.5-0.4,1.1-0.5,1.6-0.4
				c12.4,2.4,21.6,12.9,22.5,25.6c0,0.7-0.2,1.3-0.7,1.7C184.2,146.7,172.2,150.9,160,150.9z"/>
		</g>
		<g>
			<path class="st4" d="M66.8,88.1c-1.1,0-2-0.9-2-2c0-1.1,0.9-2,2-2l4.4,0c0,0,0,0,0,0c1.1,0,2,0.9,2,2c0,1.1-0.9,2-2,2L66.8,88.1
				C66.8,88.1,66.8,88.1,66.8,88.1z"/>
		</g>
		<g>
			<path class="st4" d="M50.9,88.3c-1.1,0-2-0.9-2-2c0-1.1,0.9-2,2-2l4.4,0c1.1,0,2,0.9,2,2c0,1.1-0.9,2-2,2L50.9,88.3
				C50.9,88.3,50.9,88.3,50.9,88.3z"/>
		</g>
		<g>
			<path class="st4" d="M60.8,104.1c-2.1,0-4.2-0.8-6.1-2.2c-0.9-0.7-1.1-1.9-0.4-2.8c0.7-0.9,1.9-1.1,2.8-0.4
				c1.2,0.9,2.5,1.4,3.7,1.4c0,0,0,0,0,0c1.3,0,2.5-0.5,3.8-1.5c0.9-0.7,2.1-0.5,2.8,0.4c0.7,0.9,0.5,2.1-0.4,2.8
				C65.1,103.3,63,104.1,60.8,104.1C60.9,104.1,60.8,104.1,60.8,104.1z"/>
		</g>
		<g>
			<path class="st4" d="M41.1,144.8c-1.1,0-2-0.9-2-2l-0.1-8.4c0-1.1,0.9-2,2-2c0,0,0,0,0,0c1.1,0,2,0.9,2,2l0.1,8.4
				C43.1,143.9,42.2,144.8,41.1,144.8C41.1,144.8,41.1,144.8,41.1,144.8z"/>
		</g>
		<g>
			<path class="st4" d="M40.1,118.4c-0.7,0-1.4-0.4-1.8-1.1c-3.5-6.6-5.6-13.5-6.2-20.6c-0.2-2.7-1.7-26.4,13.6-37.8
				c6.2-4.6,12.9-5.1,13.2-5.1c1.2-0.1,2.5-0.1,3.7,0c0.2,0,6.9,0.3,13.2,4.8c4.6,3.3,8.2,8,10.6,14c0.4,1-0.1,2.2-1.1,2.6
				c-1,0.4-2.2-0.1-2.6-1.1c-2.2-5.3-5.3-9.4-9.2-12.2c-5.3-3.8-11.1-4.1-11.1-4.1c-1.1-0.1-2.2-0.1-3.3,0c-0.1,0-5.9,0.4-11.1,4.3
				c-13.5,10.1-12.2,31.9-12,34.3c0.5,6.6,2.5,13,5.7,19.1c0.5,1,0.2,2.2-0.8,2.7C40.7,118.3,40.4,118.4,40.1,118.4z"/>
		</g>
		<g>
			<path class="st4" d="M82.7,118c-0.3,0-0.6-0.1-0.9-0.2c-1-0.5-1.4-1.7-0.9-2.7c1.2-2.3,3.4-6.7,3.7-13.7c0.1-1.1,1-1.9,2.1-1.9
				c1.1,0,2,1,1.9,2.1c-0.4,7.9-2.8,12.7-4.2,15.3C84.1,117.6,83.4,118,82.7,118z"/>
		</g>
		<g>
			<path class="st4" d="M61.3,111.7C61.3,111.7,61.3,111.7,61.3,111.7c-6.5-0.2-12.7-5.3-15.9-10.3c-3.5-5.4-3.7-10.8-3.7-12.6
				c-0.2-7.4,2.8-13,4.6-15.7c0.4-0.6,1.2-1,2-0.9c0.8,0.1,1.4,0.6,1.6,1.4c0,0.1,0.1,0.2,0.1,0.3c1.5,2.9,4.6,4.8,8,4.7l6.2-0.1
				c3.2,0,6.2-1.8,7.7-4.6c0.2-0.4,0.3-0.6,0.3-0.6c0.2-0.7,0.8-1.3,1.6-1.4c0.8-0.1,1.5,0.2,2,0.8c1.9,2.7,5,8.2,4.9,15.6
				c0,1.8-0.1,7.2-3.5,12.7C73.9,106.1,67.8,111.4,61.3,111.7C61.4,111.7,61.3,111.7,61.3,111.7z M48,78c-1.3,2.6-2.4,6.2-2.3,10.6
				c0,1.7,0.2,6.1,3.1,10.6c2.6,4,7.6,8.3,12.5,8.5c4.9-0.3,9.9-4.7,12.4-8.8c2.8-4.5,2.8-8.9,2.8-10.6c0-4.4-1.2-8-2.5-10.6
				c-2.4,2.9-5.9,4.6-9.8,4.7L58,82.5C54.1,82.6,50.4,80.8,48,78z"/>
		</g>
		<g>
			<path class="st4" d="M93.2,89.7c-0.6,0-1.1-0.3-1.5-0.7c-0.1-0.1-0.2-0.2-0.3-0.3c0,0,0-0.1-0.1-0.1c-1-1-1.8-2.2-2.4-3.4
				c-3.4-6.4-1.4-14.7-1.4-14.7c3.1-11.7,13.9-16.9,23.3-16.9c11.1,0,20,6.6,22.7,16.9c0,0.1,2,8.3-1.4,14.7
				c-0.7,1.2-1.5,2.4-2.4,3.4c0,0,0,0.1-0.1,0.1c-0.1,0.1-0.2,0.2-0.2,0.3c-0.5,0.6-1.4,0.9-2.2,0.6c-0.8-0.3-1.3-1-1.3-1.9
				c0-2.6-0.3-5.1-1-7.5c-0.3-0.9-0.6-1.8-0.9-2.7c-0.8,0.3-1.7,0.7-2.6,1.1c-2.7,1.2-6.1,2.8-10.9,2.8c-4.8,0-8.1-1.6-10.9-2.8
				c-0.9-0.4-1.8-0.8-2.6-1.1c-0.4,0.9-0.7,1.8-0.9,2.7c-0.7,2.4-1,4.9-1,7.5c0,0.8-0.5,1.6-1.3,1.9C93.7,89.7,93.5,89.7,93.2,89.7z
				 M110.9,57.6c-7.8,0-16.9,4.3-19.4,13.9v0c-0.3,1.2-1.1,6,0.3,10.1c0.2-0.8,0.4-1.7,0.6-2.5c0.5-1.6,1-3.3,1.8-4.9
				c0.4-0.8,1.3-1.3,2.2-1.1c1.8,0.4,3.3,1.1,5,1.9c2.6,1.2,5.3,2.4,9.2,2.4c3.9,0,6.6-1.2,9.2-2.4c1.7-0.8,3.2-1.5,5-1.9
				c0.9-0.2,1.8,0.3,2.2,1.1c0.8,1.7,1.4,3.3,1.8,4.9c0.2,0.8,0.4,1.6,0.6,2.5c1.4-4.1,0.6-8.9,0.3-10.1
				C127.1,61.2,118.3,57.6,110.9,57.6z M89.6,71L89.6,71L89.6,71z"/>
		</g>
		<g>
			<path class="st4" d="M160.7,113.9c-9.3,0-17.4-8.6-19.2-20.5c-0.2-1.1,0.6-2.1,1.7-2.3c1.1-0.2,2.1,0.6,2.3,1.7
				c1.5,9.9,7.9,17.1,15.2,17.1c7.3,0,13.7-7.2,15.2-17.1c0.2-1.1,1.2-1.8,2.3-1.7c1.1,0.2,1.8,1.2,1.7,2.3
				C178.1,105.3,170,113.9,160.7,113.9z"/>
		</g>
		<g>
			<path class="st4" d="M156.3,93.3c-0.5,0-0.9-0.2-1.3-0.5c0,0-0.3-0.3-0.7-0.3c-0.4,0-0.6,0.2-0.7,0.3c-0.8,0.7-2.1,0.6-2.8-0.2
				c-0.7-0.8-0.6-2.1,0.2-2.8c0.4-0.4,1.6-1.2,3.2-1.3c0,0,0,0,0.1,0c1.7,0,2.9,0.9,3.3,1.2c0.8,0.7,0.9,2,0.2,2.8
				C157.4,93.1,156.8,93.3,156.3,93.3z"/>
		</g>
		<g>
			<path class="st4" d="M165.6,93.3c-0.5,0-1-0.2-1.4-0.6c-0.8-0.8-0.8-2.1,0-2.8c0.4-0.4,1.6-1.4,3.4-1.4c0,0,0,0,0.1,0
				c1.8,0,2.9,1,3.3,1.4c0.8,0.8,0.8,2,0,2.8c-0.8,0.8-2,0.8-2.8,0c0,0-0.2-0.2-0.6-0.2h0c-0.3,0-0.6,0.2-0.6,0.3
				C166.6,93.1,166.1,93.3,165.6,93.3z"/>
		</g>
		<g>
			<path class="st4" d="M160.7,107.1c-2,0-3.9-0.7-5.7-2.1c-0.9-0.7-1-1.9-0.4-2.8c0.7-0.9,1.9-1,2.8-0.4c2.2,1.7,4.4,1.7,6.6,0
				c0.9-0.7,2.1-0.5,2.8,0.4c0.7,0.9,0.5,2.1-0.4,2.8C164.6,106.3,162.6,107.1,160.7,107.1z"/>
		</g>
		<g>
			<path class="st4" d="M143.5,95.1c-0.9,0-1.6-0.6-1.9-1.4c-0.1,0-0.1-0.1-0.2-0.1c-1.1-0.7-2.2-1.8-2.9-4.4
				c-1-4.3,0.2-6.2,1.5-7.1c1.3-0.9,3-0.8,4.3,0.1c0.9,0.6,1.1,1.9,0.5,2.8c-0.6,0.8-1.7,1.1-2.6,0.6c-0.1,0.4-0.1,1.2,0.2,2.6
				c0.3,1.3,0.7,1.6,1.3,2c0.6,0.4,1.5,1,1.8,2.4c0.2,1.1-0.5,2.1-1.6,2.3C143.7,95.1,143.6,95.1,143.5,95.1z"/>
		</g>
		<g>
			<path class="st4" d="M178,95.1c-0.1,0-0.3,0-0.4,0c-1.1-0.2-1.8-1.3-1.6-2.3c0.3-1.4,1.2-2,1.8-2.4c0.6-0.4,1-0.7,1.3-2
				c0.4-1.5,0.3-2.2,0.2-2.6c-0.9,0.5-2,0.2-2.6-0.6c-0.6-0.9-0.4-2.1,0.5-2.8c1.3-0.9,3-1,4.3-0.1c1.2,0.8,2.5,2.7,1.5,7.1
				c-0.6,2.6-1.8,3.6-2.9,4.4c-0.1,0-0.1,0.1-0.2,0.1C179.6,94.5,178.8,95.1,178,95.1z"/>
		</g>
		<g>
			<path class="st4" d="M143.6,107c-2.5-0.1-4.6-1.4-5.8-3.4c-1.2-0.4-2.6-1.3-3.2-3.1c-0.3-1.1,0.3-2.2,1.3-2.5
				c1-0.3,2.2,0.3,2.5,1.3c0.1,0.4,0.6,0.5,0.8,0.5c0.9,0,1.6,0.5,1.8,1.3c0.4,1.1,1.4,1.8,2.5,1.9c0.7,0,1.5-0.4,2-1.1
				c0.7-0.9,1.9-1,2.8-0.4c0.9,0.7,1,1.9,0.4,2.8C147.5,106,145.6,107,143.6,107z"/>
		</g>
		<g>
			<path class="st4" d="M178.2,107c-1.9,0-3.5-0.8-4.7-2c-0.8-0.8-0.8-2,0-2.8c0.8-0.8,2-0.8,2.8,0c0.5,0.5,1.2,0.8,1.9,0.8
				c1,0,2-0.8,2.4-1.9c0.2-0.7,0.9-1.2,1.6-1.3c1.4-0.2,2.4-1.3,2.4-2.7c0-0.4-0.1-0.8-0.3-1.2c-0.3-0.6-0.3-1.3,0.1-1.9
				c0.3-0.6,0.9-0.9,1.6-1c1.4-0.1,2.6-1.3,2.6-2.7c0-0.9-0.5-1.8-1.2-2.3c-0.7-0.5-1-1.3-0.8-2.1c0.2-0.8,0.9-1.4,1.7-1.5
				c1.4-0.1,2.5-1.3,2.5-2.7c0-1-0.6-1.9-1.5-2.4c-0.6-0.3-1-0.9-1.1-1.6c-0.1-0.7,0.2-1.3,0.7-1.7c0.7-0.5,1-1.3,1-2.1
				c0-1.4-1.2-2.7-2.6-2.7l-0.3,0c-0.8,0.1-1.6-0.3-2-1.1c-0.4-0.7-0.3-1.6,0.3-2.2c0.3-0.4,0.7-1,0.7-1.8c0-1.5-1.2-2.7-2.7-2.7
				c-0.3,0-0.8,0.1-1.2,0.4c-0.8,0.5-1.8,0.3-2.4-0.3c-0.6-0.7-0.7-1.7-0.3-2.4c0.3-0.4,0.4-0.9,0.4-1.4c0-1.5-1.2-2.7-2.7-2.7
				c-0.7,0-1.3,0.4-1.7,0.7c-0.6,0.5-1.4,0.7-2.2,0.3c-0.7-0.3-1.2-1.1-1.2-1.9c0,0,0-0.1,0-0.1c0-1.4-1.2-2.6-2.7-2.7
				c-0.8,0-1.7,0.5-2.2,1.4c-0.5,0.8-1.4,1.2-2.3,0.9c-0.9-0.3-1.5-1.1-1.4-2c0,0,0-0.1,0-0.2c0-1.4-1.2-2.6-2.7-2.7l0,0
				c-0.1,0-0.2,0-0.3,0l-0.1,0c-1.4,0-2.5,1.2-2.6,2.7c0,0.1,0,0.1,0,0.2c0,0.9-0.6,1.7-1.4,2c-0.9,0.3-1.8-0.1-2.3-0.9
				c-0.5-0.8-1.3-1.3-2.3-1.4c-1.4,0-2.5,1.2-2.6,2.7c0,0.1,0,0.1,0,0.2c0,0.8-0.5,1.5-1.2,1.8c-0.7,0.3-1.6,0.2-2.2-0.4
				c-0.4-0.3-0.9-0.7-1.8-0.7c-1.4,0-2.6,1.3-2.6,2.7c0,0.5,0.1,1,0.4,1.4c0.5,0.8,0.4,1.8-0.3,2.4c-0.6,0.7-1.6,0.8-2.4,0.3
				c-0.4-0.2-0.9-0.4-1.3-0.4c-0.8,0-1.7,0.5-2.2,1.3c-0.6,0.9-1.8,1.2-2.8,0.6c-0.9-0.6-1.2-1.8-0.6-2.8c1.1-1.8,3-2.9,5.1-3.1
				c0.1-3.6,3-6.5,6.6-6.6c0.6,0,1.2,0.1,1.8,0.3c1.1-2.2,3.3-3.8,5.9-3.9c1.1,0,2.1,0.3,3,0.7c1.2-1.9,3.2-3.2,5.6-3.3
				c0.1,0,0.2,0,0.3,0c0.1,0,0.1,0,0.2,0c2.4,0.1,4.5,1.4,5.7,3.3c0.9-0.4,1.9-0.7,2.9-0.7c2.7,0.1,4.9,1.6,6,3.8
				c0.5-0.2,1.1-0.2,1.7-0.3c3.7,0.1,6.6,3,6.7,6.6c3.5,0.3,6.1,3.2,6.1,6.7c0,0.6-0.1,1.1-0.2,1.7c2.4,1,4.1,3.4,4.1,6.2
				c0,1.2-0.3,2.4-0.9,3.4c1.1,1.2,1.7,2.8,1.7,4.4c0,2.3-1.2,4.3-2.9,5.6c0.5,0.9,0.7,2,0.7,3.1c0,2.7-1.6,5.1-4,6.1
				c0,0.2,0,0.4,0,0.6c0,3-2,5.5-4.7,6.4C182.7,105.6,180.6,107,178.2,107z"/>
		</g>
		<g>
			<path class="st4" d="M90.4,96.8c-0.9,0-1.7-0.6-1.9-1.5c-0.1-0.1-0.2-0.2-0.3-0.2c-0.9-0.7-2.5-1.8-3.3-5c-1.2-4.9,0.2-7.1,1.6-8
				c1.4-0.9,3.2-0.9,4.7,0.1c0.9,0.6,1.1,1.9,0.5,2.8c-0.6,0.9-1.9,1.1-2.8,0.5c-0.1-0.1-0.2-0.1-0.2-0.1c-0.1,0.1-0.5,1.1,0.1,3.7
				c0.4,1.7,1,2.2,1.7,2.6c0.7,0.5,1.6,1.2,1.9,2.6c0.2,1.1-0.5,2.1-1.6,2.3C90.7,96.8,90.5,96.8,90.4,96.8z"/>
		</g>
		<g>
			<path class="st4" d="M131.4,96.8c-0.1,0-0.3,0-0.4,0c-1.1-0.2-1.8-1.3-1.6-2.3c0.3-1.5,1.3-2.2,1.9-2.6c0.7-0.5,1.3-0.9,1.7-2.6
				c0.6-2.5,0.2-3.6,0.1-3.8c0,0-0.1,0-0.2,0.1c-0.9,0.6-2.1,0.4-2.8-0.5c-0.6-0.9-0.4-2.1,0.5-2.8c1.5-1,3.3-1.1,4.7-0.1
				c1.4,0.9,2.8,3.1,1.6,8c-0.8,3.2-2.3,4.3-3.3,5c-0.1,0.1-0.3,0.2-0.3,0.2C133.1,96.2,132.3,96.8,131.4,96.8z"/>
		</g>
		<g>
			<path class="st4" d="M110.9,119.2c-10.9,0-20.4-10.1-22.5-24.1C88.3,94,89,93,90.1,92.9c1.1-0.2,2.1,0.6,2.3,1.7
				c1.8,12,9.6,20.7,18.5,20.7c8.9,0,16.7-8.7,18.5-20.7c0.2-1.1,1.2-1.8,2.3-1.7c1.1,0.2,1.8,1.2,1.7,2.3
				C131.2,109.1,121.8,119.2,110.9,119.2z"/>
		</g>
		<g>
			<path class="st4" d="M106.5,94.7h-4.8c-1.1,0-2-0.9-2-2c0-1.1,0.9-2,2-2h4.8c1.1,0,2,0.9,2,2C108.5,93.8,107.6,94.7,106.5,94.7z"
				/>
		</g>
		<g>
			<path class="st4" d="M121.5,94.7h-4.8c-1.1,0-2-0.9-2-2c0-1.1,0.9-2,2-2h4.8c1.1,0,2,0.9,2,2C123.5,93.8,122.6,94.7,121.5,94.7z"
				/>
		</g>
		<g>
			<path class="st4" d="M110.9,111c-2.2,0-4.5-0.8-6.6-2.4c-0.9-0.7-1-1.9-0.4-2.8c0.7-0.9,1.9-1.1,2.8-0.4c2.8,2.1,5.6,2.1,8.3,0
				c0.9-0.7,2.1-0.5,2.8,0.4c0.7,0.9,0.5,2.1-0.4,2.8C115.4,110.2,113.1,111,110.9,111z"/>
		</g>
		<g>
			<path class="st4" d="M86.1,158.6c-1.1,0-2-0.9-2-2v-14.4c0-1.1,0.9-2,2-2c1.1,0,2,0.9,2,2v14.4C88.1,157.7,87.2,158.6,86.1,158.6
				z"/>
		</g>
		<g>
			<path class="st4" d="M136.5,157.8c-1.1,0-2-0.9-2-2v-13.6c0-1.1,0.9-2,2-2c1.1,0,2,0.9,2,2v13.6
				C138.4,156.9,137.6,157.8,136.5,157.8z"/>
		</g>
		<g>
			<path class="st4" d="M124.4,132.2c-0.3,0-0.6-0.1-0.9-0.2l-13.8-7.1c-1-0.5-1.4-1.7-0.9-2.7c0.5-1,1.7-1.4,2.7-0.9l11.2,5.7
				l0.9-9.6c0.1-1.1,1.1-1.9,2.2-1.8c1.1,0.1,1.9,1.1,1.8,2.2l-1.1,12.6c-0.1,0.7-0.4,1.2-1,1.6
				C125.1,132.1,124.8,132.2,124.4,132.2z"/>
		</g>
		<g>
			<path class="st4" d="M97,132.2c-0.3,0-0.7-0.1-1-0.2c-0.6-0.3-1-0.9-1-1.6l-1.1-12.6c-0.1-1.1,0.7-2.1,1.8-2.2
				c1.1-0.1,2.1,0.7,2.2,1.8l0.9,9.6l11.2-5.7c1-0.5,2.2-0.1,2.7,0.9c0.5,1,0.1,2.2-0.9,2.7L97.9,132
				C97.6,132.2,97.3,132.2,97,132.2z"/>
		</g>
		<g>
			<path class="st4" d="M109.9,171.8c-14.6,0-28.7-4.3-40.8-12.4c-0.9-0.6-1.2-1.9-0.5-2.8c0.6-0.9,1.9-1.2,2.8-0.5
				c11.4,7.7,24.8,11.7,38.6,11.7c12.9,0,25.5-3.6,36.4-10.3c0.9-0.6,2.2-0.3,2.7,0.6c0.6,0.9,0.3,2.2-0.6,2.7
				C136.9,168,123.6,171.8,109.9,171.8z"/>
		</g>
		<circle class="st4" cx="151.8" cy="155.8" r="1.9"/>
		<g>
			<path class="st4" d="M177.9,85.9c-0.4,0-0.8-0.1-1.2-0.4c-0.9-0.7-1.7-1.5-2.2-2.5c-1-1.8-1-3.7-0.8-5.3
				c-0.7-0.1-1.4-0.4-2.2-0.7c-1.1-0.6-1.9-1.4-2.5-2.2c-0.8,0.6-1.7,1.1-2.7,1.3c-2.1,0.4-4.2-0.3-5.7-1.7c-1.3,0.6-3,1.2-5.2,0.7
				c-0.7-0.1-1.3-0.4-1.8-0.6c-0.5,1.1-1.3,2.1-2.5,2.9c-0.8,0.5-1.7,0.8-2.5,1c0,1.1-0.2,2.4-0.8,3.7c-0.9,1.9-2.3,2.9-3.3,3.5
				c-1,0.5-2.2,0.2-2.7-0.8c-0.5-1-0.2-2.2,0.8-2.7c0.4-0.2,1.2-0.8,1.7-1.8c0.7-1.4,0.4-2.7,0.2-3.3c-0.2-0.7-0.1-1.4,0.4-1.9
				c0.5-0.5,1.2-0.8,1.8-0.7c0.4,0.1,1.4,0.2,2.2-0.4c1.5-0.9,1.4-3,1.4-3c0-0.9,0.5-1.7,1.3-2c0.8-0.3,1.7,0,2.3,0.7
				c0.3,0.4,1,1.2,2.3,1.5c1.9,0.4,3.3-0.9,3.5-1c0.5-0.4,1.1-0.6,1.7-0.5c0.6,0.1,1.1,0.5,1.4,1.1c0.5,1,1.6,1.6,2.7,1.4
				c1-0.2,1.8-1,1.9-2.1c0.2-1,1-1.7,2.1-1.7c1,0,1.8,0.8,1.9,1.9c0,0,0.2,2.3,2,3.2c1.1,0.6,2.2,0.4,2.6,0.3c0.8-0.2,1.6,0.1,2,0.7
				c0.5,0.6,0.5,1.5,0.2,2.1c-0.1,0.1-1.3,2.5-0.3,4.4c0.2,0.4,0.6,0.8,1.1,1.2c0.9,0.6,1.1,1.9,0.4,2.8
				C179.1,85.7,178.5,85.9,177.9,85.9z"/>
		</g>
		<g>
			<g>
				<path class="st4" d="M69.9,148.5c0,0-0.1,0-0.1,0c-1.1-0.1-1.9-1-1.9-2.1c1-15.4,12.3-27.9,27.4-30.6l0.2,0c0.1,0,0.2,0,0.3,0
					c1.1-0.2,2.1,0.6,2.3,1.7c0.2,1.1-0.6,2.1-1.7,2.3c-0.2,0-0.3,0.1-0.5,0.1c-13.2,2.3-23.2,13.4-24,26.9
					C71.8,147.6,70.9,148.5,69.9,148.5z"/>
			</g>
			<g>
				<g>
					<path class="st4" d="M110.6,163.5h-0.1c-15.4,0-30.3-5.5-41.9-15.6c-0.8-0.7-0.9-2-0.2-2.8c0.7-0.8,2-0.9,2.8-0.2
						c10.9,9.4,24.8,14.6,39.3,14.6h0.1c14.2,0,27.9-5.1,38.7-14.2c-1.4-12.9-11.1-23.3-23.9-25.6c-0.1,0-0.2,0-0.3,0
						c-0.1,0-0.1,0-0.2,0c-1.1-0.1-1.9-1.1-1.7-2.2c0.1-1.1,1.1-1.9,2.2-1.7c0.2,0,0.3,0,0.5,0.1c0,0,0.1,0,0.1,0
						c15,2.6,26.2,15.1,27.4,30.3c0,0.6-0.2,1.2-0.7,1.6C141.1,157.8,126.1,163.5,110.6,163.5z"/>
				</g>
			</g>
		</g>
	</g>
</g>
<g>
	<g>
		<rect x="80.1" y="154.1" class="st5" width="63.9" height="35.2"/>
		<rect x="105.1" y="126.2" class="st6" width="20.2" height="7.5"/>
		<path class="st6" d="M91.8,148.2v-1.4c0-6.9,5.2-12.5,11.6-12.5H122c6.4,0,11.6,5.6,11.6,12.5v1.9L91.8,148.2z"/>
		<path class="st6" d="M114.1,32.9c0,2.4-1.9,4.3-4.3,4.3c-2.4,0-4.3-1.9-4.3-4.3c0-2.4,1.9-4.3,4.3-4.3
			C112.2,28.5,114.1,30.5,114.1,32.9z"/>
		<path class="st6" d="M137.8,59.9c0-2.8-0.2-5.6-0.5-8.3h-15c-0.2,14.2-3.2,38.6-12.5,47.9v19l0.1,6.2h-1h13.1l-6.1-6.1
			c0,0,0.1-9.8,0.1-16C128.3,98.8,137.8,81.2,137.8,59.9z"/>
	</g>
	<g>
		<path class="st4" d="M190.4,189.7c0,1.1-0.9,2.1-2.1,2.1c-1.1,0-2.1-0.9-2.1-2.1c0-1.1,0.9-2.1,2.1-2.1
			C189.5,187.6,190.4,188.6,190.4,189.7z"/>
		<path class="st4" d="M133.7,43.8c0,1.1-0.9,2.1-2.1,2.1c-1.1,0-2.1-0.9-2.1-2.1c0-1.1,0.9-2.1,2.1-2.1
			C132.8,41.7,133.7,42.6,133.7,43.8z"/>
		<circle class="st4" cx="98.8" cy="90.3" r="2.1"/>
		<g>
			<path class="st4" d="M172.5,189.8c-1.1,0-2-0.9-2-2v-17.7h-25.9c-1.1,0-2-0.9-2-2v-16.9H75.6v16.9c0,1.1-0.9,2-2,2H47.7v17.7
				c0,1.1-0.9,2-2,2s-2-0.9-2-2v-19.7c0-1.1,0.9-2,2-2h25.9v-16.9c0-1.1,0.9-2,2-2h70.9c1.1,0,2,0.9,2,2v16.9h25.9c1.1,0,2,0.9,2,2
				v19.7C174.5,188.9,173.6,189.8,172.5,189.8z"/>
		</g>
		<g>
			<path class="st4" d="M180.2,191.8h-147c-1.1,0-2-0.9-2-2c0-1.1,0.9-2,2-2h147c1.1,0,2,0.9,2,2
				C182.2,190.9,181.4,191.8,180.2,191.8z"/>
		</g>
		<g>
			<path class="st4" d="M144.5,184.3c-1.1,0-2-0.9-2-2v-14.2c0-1.1,0.9-2,2-2c1.1,0,2,0.9,2,2v14.2
				C146.5,183.4,145.6,184.3,144.5,184.3z"/>
		</g>
		<g>
			<path class="st4" d="M73.6,184.3c-1.1,0-2-0.9-2-2v-14.2c0-1.1,0.9-2,2-2c1.1,0,2,0.9,2,2v14.2C75.6,183.4,74.7,184.3,73.6,184.3
				z"/>
		</g>
		<g>
			<path class="st4" d="M110.9,181.7c-1.1,0-2-0.9-2-2v-15.3l-5.5,5c-0.8,0.7-2.1,0.7-2.8-0.1c-0.7-0.8-0.7-2.1,0.1-2.8l8.8-8
				c0.6-0.5,1.4-0.7,2.2-0.3c0.7,0.3,1.2,1,1.2,1.8v19.8C112.9,180.8,112,181.7,110.9,181.7z"/>
		</g>
		<g>
			<path class="st4" d="M115.7,183.1h-11c-1.1,0-2-0.9-2-2c0-1.1,0.9-2,2-2h11c1.1,0,2,0.9,2,2C117.7,182.2,116.8,183.1,115.7,183.1
				z"/>
		</g>
		<g>
			<path class="st4" d="M84.7,80.4c-0.3,0-0.6-0.1-0.9-0.2c-1.6-0.8-3.4-1.3-5.3-1.8c-4.4-1.3-9.4-2.7-11.8-7.4
				c-2.3-4.7-1.3-11.1,2.3-14.3c3.5-3.1,8.7-3.3,14-0.6c1,0.5,1.4,1.7,0.9,2.7c-0.5,1-1.7,1.4-2.7,0.9c-3.8-1.9-7.3-1.9-9.6,0.1
				c-2.3,2-3,6.4-1.4,9.5c1.6,3.2,5.3,4.3,9.3,5.4c2,0.6,4.1,1.2,6,2.1c1,0.5,1.4,1.7,0.9,2.7C86.1,80,85.4,80.4,84.7,80.4z"/>
		</g>
		<g>
			<path class="st4" d="M84.1,93.8c-0.3,0-0.5,0-0.8,0c-2.8-0.3-5.2-2.3-6.1-5.1c-0.4-1,0.2-2.2,1.2-2.5c1-0.4,2.2,0.2,2.5,1.2
				c0.4,1.3,1.5,2.2,2.8,2.4c1.5,0.2,2.7-0.8,3.1-1.5c0.4-0.6,1-0.9,1.7-0.9c1.1,0,2,0.9,2,2v0c0,0.4-0.1,0.8-0.3,1.1
				C89.1,92.1,86.9,93.8,84.1,93.8z"/>
		</g>
		<g>
			<path class="st4" d="M136.5,93.6c-0.3,0-0.5,0-0.8,0c-2.8-0.3-5.2-2.3-6.1-5.1c-0.4-1,0.2-2.2,1.2-2.5c1-0.3,2.2,0.2,2.5,1.2
				c0.4,1.3,1.5,2.2,2.8,2.4c1.5,0.2,2.7-0.8,3.1-1.5c0.4-0.6,1-0.9,1.7-0.9c1.1,0,2,0.9,2,2v0c0,0.4-0.1,0.8-0.3,1.1
				C141.5,91.9,139.3,93.6,136.5,93.6z"/>
		</g>
		<g>
			<path class="st4" d="M114.5,112.8c-1.1,0-2-0.9-2-2v-7.2c0-1.1,0.9-2,2-2s2,0.9,2,2v7.2C116.5,111.9,115.6,112.8,114.5,112.8z"/>
		</g>
		<g>
			<path class="st4" d="M104.3,112.8c-1.1,0-2-0.9-2-2v-7.2c0-1.1,0.9-2,2-2c1.1,0,2,0.9,2,2v7.2
				C106.3,111.9,105.4,112.8,104.3,112.8z"/>
		</g>
		<g>
			<path class="st4" d="M114.5,105.6c-0.8,0-1.6-0.5-1.9-1.4c-0.3-1,0.3-2.2,1.3-2.5c11.9-3.6,20.5-20.8,20.5-40.8
				c0-2-0.1-4.2-0.3-6.3H84.7c-0.2,2.1-0.3,4.3-0.3,6.3c0,20,8.6,37.1,20.5,40.8c1,0.3,1.6,1.4,1.3,2.5c-0.3,1-1.4,1.6-2.5,1.3
				c-13.5-4.1-23.3-22.9-23.3-44.6c0-2.7,0.2-5.6,0.5-8.5c0.1-1,1-1.8,2-1.8h53c1,0,1.9,0.8,2,1.7c0.3,2.9,0.5,5.8,0.5,8.5
				c0,21.7-9.8,40.4-23.3,44.6C114.9,105.5,114.7,105.6,114.5,105.6z"/>
		</g>
		<g>
			<path class="st4" d="M93.5,84.9c-0.8,0-1.5-0.4-1.8-1.2c-2.9-6.7-4.4-14.5-4.4-22.8c0-0.2,0-0.4,0.1-0.8c0-0.4,0.1-1.1,0.2-2.5
				c0.1-1.1,1-1.9,2.1-1.8c1.1,0.1,1.9,1.1,1.8,2.1c-0.1,1.5-0.2,2.2-0.2,2.5c0,0.2,0,0.3,0,0.4c0,7.7,1.4,15,4.1,21.2
				c0.4,1,0,2.2-1,2.6C94.1,84.8,93.8,84.9,93.5,84.9z"/>
		</g>
		<g>
			<path class="st4" d="M60.4,78.8h-5c-1.1,0-2-0.9-2-2c0-1.1,0.9-2,2-2h5c1.1,0,2,0.9,2,2C62.4,77.9,61.5,78.8,60.4,78.8z"/>
		</g>
		<g>
			<path class="st4" d="M164.8,78.8h-5c-1.1,0-2-0.9-2-2c0-1.1,0.9-2,2-2h5c1.1,0,2,0.9,2,2C166.8,77.9,165.9,78.8,164.8,78.8z"/>
		</g>
		<g>
			<path class="st4" d="M73.8,42.4c-0.5,0-1-0.2-1.4-0.6l-3.5-3.5c-0.8-0.8-0.8-2,0-2.8c0.8-0.8,2-0.8,2.8,0l3.5,3.5
				c0.8,0.8,0.8,2,0,2.8C74.8,42.2,74.3,42.4,73.8,42.4z"/>
		</g>
		<g>
			<path class="st4" d="M150,111.1c-0.5,0-1-0.2-1.4-0.6l-3.5-3.5c-0.8-0.8-0.8-2,0-2.8c0.8-0.8,2-0.8,2.8,0l3.5,3.5
				c0.8,0.8,0.8,2,0,2.8C151,110.9,150.5,111.1,150,111.1z"/>
		</g>
		<g>
			<path class="st4" d="M146.5,42.4c-0.5,0-1-0.2-1.4-0.6c-0.8-0.8-0.8-2,0-2.8l3.5-3.5c0.8-0.8,2-0.8,2.8,0c0.8,0.8,0.8,2,0,2.8
				l-3.5,3.5C147.5,42.2,147,42.4,146.5,42.4z"/>
		</g>
		<g>
			<path class="st4" d="M70.3,111.1c-0.5,0-1-0.2-1.4-0.6c-0.8-0.8-0.8-2,0-2.8l3.5-3.5c0.8-0.8,2-0.8,2.8,0c0.8,0.8,0.8,2,0,2.8
				l-3.5,3.5C71.3,110.9,70.8,111.1,70.3,111.1z"/>
		</g>
		<g>
			<path class="st4" d="M120,114.2H99.4c-1.1,0-2-0.9-2-2c0-1.1,0.9-2,2-2H120c1.1,0,2,0.9,2,2C122,113.3,121.1,114.2,120,114.2z"/>
		</g>
		<g>
			<path class="st4" d="M108.7,127.7h-11c-0.8,0-1.5-0.5-1.8-1.2c-0.3-0.7-0.1-1.6,0.4-2.2l5.5-5.5l0-5.2c0-1.1,0.9-2,2-2
				c0,0,0,0,0,0c1.1,0,2,0.9,2,2l0,6c0,0.5-0.2,1-0.6,1.4l-2.7,2.7h6.2c1.1,0,2,0.9,2,2C110.7,126.8,109.8,127.7,108.7,127.7z"/>
		</g>
		<g>
			<path class="st4" d="M120.5,127.7h-11c-1.1,0-2-0.9-2-2c0-1.1,0.9-2,2-2h6.2l-2.7-2.7c-0.4-0.4-0.6-0.9-0.6-1.4v-5.9
				c0-1.1,0.9-2,2-2c1.1,0,2,0.9,2,2v5.1l5.5,5.5c0.6,0.6,0.7,1.4,0.4,2.2C122.1,127.2,121.3,127.7,120.5,127.7z"/>
		</g>
		<g>
			<path class="st4" d="M125.2,135.6c-1.1,0-2-0.9-2-2V128H94.4v4.9c0,1.1-0.9,2-2,2c-1.1,0-2-0.9-2-2V126c0-1.1,0.9-2,2-2h32.8
				c1.1,0,2,0.9,2,2v7.7C127.2,134.8,126.3,135.6,125.2,135.6z"/>
		</g>
		<g>
			<path class="st4" d="M133,150c-1.1,0-2-0.9-2-2v-2c0-6.2-5-11.2-11.2-11.2H98.5c-6.2,0-11.2,5-11.2,11.2v1.5c0,1.1-0.9,2-2,2
				c-1.1,0-2-0.9-2-2v-1.5c0-8.4,6.8-15.2,15.2-15.2h21.2c8.4,0,15.2,6.8,15.2,15.2v2C134.9,149.1,134.1,150,133,150z"/>
		</g>
		<g>
			<path class="st4" d="M78.6,66.4c-3.3,0-5.9-2.6-5.9-5.9c0-3.3,2.6-5.9,5.9-5.9c3.3,0,5.9,2.7,5.9,5.9
				C84.5,63.8,81.8,66.4,78.6,66.4z M78.6,58.6c-1.1,0-1.9,0.9-1.9,1.9c0,1.1,0.9,1.9,1.9,1.9s1.9-0.9,1.9-1.9
				C80.5,59.5,79.7,58.6,78.6,58.6z"/>
		</g>
		<g>
			<path class="st4" d="M135.2,80.4c-0.7,0-1.4-0.4-1.8-1.1c-0.5-1-0.1-2.2,0.9-2.7c1.9-0.9,4-1.5,6-2.1c4-1.1,7.7-2.2,9.3-5.4
				c1.6-3.1,0.9-7.5-1.4-9.5c-2.3-2-5.7-2-9.6-0.1c-1,0.5-2.2,0.1-2.7-0.9c-0.5-1-0.1-2.2,0.9-2.7c5.3-2.7,10.5-2.4,14,0.6
				c3.6,3.2,4.7,9.6,2.3,14.3c-2.4,4.8-7.4,6.2-11.8,7.4c-1.9,0.6-3.8,1.1-5.3,1.8C135.8,80.3,135.5,80.4,135.2,80.4z"/>
		</g>
		<g>
			<path class="st4" d="M141.3,66.4c-3.3,0-5.9-2.6-5.9-5.9c0-3.3,2.6-5.9,5.9-5.9c3.3,0,5.9,2.7,5.9,5.9
				C147.2,63.8,144.6,66.4,141.3,66.4z M141.3,58.6c-1.1,0-1.9,0.9-1.9,1.9c0,1.1,0.9,1.9,1.9,1.9c1.1,0,1.9-0.9,1.9-1.9
				C143.3,59.5,142.4,58.6,141.3,58.6z"/>
		</g>
		<g>
			<path class="st4" d="M109.8,39.2c-3.5,0-6.3-2.8-6.3-6.3c0-3.5,2.8-6.3,6.3-6.3c3.5,0,6.3,2.8,6.3,6.3
				C116.1,36.3,113.3,39.2,109.8,39.2z M109.8,30.5c-1.3,0-2.4,1.1-2.4,2.4c0,1.3,1.1,2.3,2.4,2.3c1.3,0,2.4-1.1,2.4-2.3
				C112.1,31.6,111.1,30.5,109.8,30.5z"/>
		</g>
		<g>
			<path class="st4" d="M109.8,45.5c-1.1,0-2-0.9-2-2v-6.3c0-1.1,0.9-2,2-2c1.1,0,2,0.9,2,2v6.3C111.8,44.6,110.9,45.5,109.8,45.5z"
				/>
		</g>
		<g>
			<path class="st4" d="M124,46.2H86.4c-1.1,0-2-0.9-2-2c0-1.1,0.9-2,2-2H124c1.1,0,2,0.9,2,2C126,45.3,125.1,46.2,124,46.2z"/>
		</g>
		<g>
			<path class="st4" d="M172.1,177.6h-26.7c-1.1,0-2-0.9-2-2c0-1.1,0.9-2,2-2h26.7c1.1,0,2,0.9,2,2
				C174.1,176.7,173.2,177.6,172.1,177.6z"/>
		</g>
		<g>
			<path class="st4" d="M73.4,177.6H46.8c-1.1,0-2-0.9-2-2c0-1.1,0.9-2,2-2h26.7c1.1,0,2,0.9,2,2C75.4,176.7,74.5,177.6,73.4,177.6z
				"/>
		</g>
	</g>
</g>
<g class="st0">
	<g class="st3">
		<path class="st5" d="M90.6,63.5L85.8,73c0,0-6.4-21.6,6.3-32.1c15.8-12.2,31.4-1.6,34.6,2.6c0,0,7.7-1.3,12.3,8.3
			c3.7,7.8-2.4,26.8-2.4,26.8l-7.9-19.5C128.6,59.1,120.4,74.5,90.6,63.5z"/>
		<path class="st5" d="M103.9,140.6h0.6l-2.3,27.3l7,14.6l6.1-12.9l-2.4-28.9h0.5c1.6,0,2.9-1.5,2.6-3.1l-1-4.8
			c-0.2-1.2-1.3-2.1-2.6-2.1h-7.7c-1.2,0-2.3,0.9-2.6,2.1l-1,4.8C101.1,139.1,102.3,140.6,103.9,140.6z"/>
		<ellipse transform="matrix(0.4639 -0.8859 0.8859 0.4639 -4.6353 206.3799)" class="st6" cx="168.2" cy="107" rx="21" ry="21"/>
		<path class="st6" d="M42.7,100.2v53.2c3.1-10.5,9.4-19.6,17.8-26.2v-27c0-1.2,1-2.2,2.2-2.2h5.7c1.8,0,2.8-2.1,1.7-3.5L53.4,74
			c-0.9-1.1-2.5-1.1-3.4,0L33.4,94.6c-1.1,1.4-0.1,3.5,1.7,3.5h5.5C41.8,98.1,42.7,99,42.7,100.2z"/>
	</g>
	<g class="st3">
		<g>
			<g>
				<g>
					<path class="st7" d="M168.9,123.1C168.9,123.1,168.8,123.1,168.9,123.1c-1.2,0-2.1-1-2-2.1l0.1-1.5c0-1.1,0.9-2,2.1-1.9
						c1.1,0,2,1,1.9,2.1l-0.1,1.5C170.9,122.3,170,123.1,168.9,123.1z"/>
				</g>
				<g>
					<path class="st7" d="M168.4,97.5C168.4,97.5,168.4,97.5,168.4,97.5c-1.2,0-2.1-1-2-2.1l0.1-1.6c0-1.1,1-2,2.1-1.9
						c1.1,0,2,1,1.9,2.1l-0.1,1.6C170.4,96.7,169.5,97.5,168.4,97.5z"/>
				</g>
				<g>
					<path class="st7" d="M168.3,120c-4.4,0-7.2-2.9-8-3.8c-0.7-0.8-0.6-2.1,0.2-2.9c0.8-0.7,2.1-0.6,2.9,0.2
						c0.4,0.4,2.2,2.4,4.9,2.4c0.1,0,0.1,0,0.2,0c1.5-0.1,3.9-0.7,4.4-2.3c0.4-1,0.1-2.4-0.7-3.4c-0.9-1.1-2.2-1.4-4.2-1.7
						c-2.1-0.4-4.7-0.8-6.4-3.2c-1.4-2-1.6-4.8-0.6-6.9c1.5-3.2,5.3-4.4,8.3-4.1c3.5,0.4,5.6,2.7,6.4,3.7c0.7,0.9,0.5,2.2-0.4,2.8
						c-0.9,0.7-2.2,0.5-2.8-0.4c-0.3-0.4-1.6-1.9-3.6-2.1c-1.6-0.2-3.6,0.5-4.2,1.8c-0.4,0.9-0.3,2.1,0.3,3c0.7,1,1.8,1.2,3.7,1.5
						c2.1,0.4,4.8,0.8,6.7,3.2c1.7,2.1,2.2,5,1.3,7.3c-1.3,3.4-5.2,4.8-8.1,4.9C168.5,120,168.4,120,168.3,120z"/>
				</g>
			</g>
		</g>
		<g>
			<g>
				<path class="st6" d="M61.6,67.4c0,0-0.1,0-0.1,0c-1.1-0.1-2-1-1.9-2.1l0.1-1.3c0.1-1.1,1-2,2.1-1.9c1.1,0.1,2,1,1.9,2.1
					l-0.1,1.3C63.5,66.6,62.6,67.4,61.6,67.4z"/>
			</g>
			<g>
				<path class="st6" d="M61.5,45.2c0,0-0.1,0-0.1,0c-1.1-0.1-1.9-1-1.9-2.1l0.1-1.4c0.1-1.1,1-1.9,2.1-1.9c1.1,0.1,1.9,1,1.9,2.1
					l-0.1,1.4C63.5,44.4,62.6,45.2,61.5,45.2z"/>
			</g>
			<g>
				<path class="st6" d="M61.2,64.6c-4,0-6.5-2.7-7.2-3.5c-0.7-0.9-0.6-2.1,0.3-2.8c0.9-0.7,2.1-0.6,2.8,0.3
					c0.3,0.4,1.8,2.1,4.1,2.1c0,0,0.1,0,0.1,0c1.2,0,3.2-0.5,3.6-1.7c0.3-0.8,0.1-1.9-0.5-2.7c-0.7-0.9-1.8-1.2-3.4-1.5
					c-1.9-0.3-4.2-0.8-5.7-3c-1.2-1.8-1.4-4.3-0.5-6.3c1.4-2.9,4.8-3.9,7.5-3.6c3.1,0.4,5,2.5,5.6,3.4c0.6,0.9,0.4,2.1-0.4,2.8
					c-0.9,0.6-2.1,0.4-2.8-0.4c-0.3-0.4-1.3-1.6-2.9-1.8c-1.3-0.2-2.9,0.3-3.4,1.3c-0.3,0.7-0.2,1.7,0.2,2.3c0.5,0.8,1.4,1,3,1.3
					c1.9,0.3,4.3,0.8,5.9,3c1.4,1.9,1.9,4.5,1,6.6c-1.2,3.1-4.7,4.2-7.3,4.3C61.3,64.6,61.3,64.6,61.2,64.6z"/>
			</g>
		</g>
		<g>
			<path class="st4" d="M79.4,90c-0.9,0-1.8-0.7-2-1.6c0-0.2-0.1-0.2-0.8-0.8c-1.3-0.9-3.4-2.4-4.4-6.7c-1.6-6.7,0.2-9.5,1.9-10.7
				c1.7-1.2,4-1.1,5.9,0.2c0.9,0.6,1.1,1.9,0.5,2.8c-0.6,0.9-1.9,1.1-2.8,0.5c-0.4-0.3-0.9-0.4-1.3-0.2c-0.6,0.4-1.3,2.2-0.3,6.5
				c0.7,2.9,1.8,3.6,2.8,4.4c0.9,0.6,2.1,1.5,2.5,3.3c0.2,1.1-0.5,2.2-1.6,2.4C79.6,90,79.5,90,79.4,90z"/>
		</g>
		<g>
			<path class="st4" d="M139.3,90c-0.1,0-0.3,0-0.4,0c-1.1-0.2-1.8-1.3-1.6-2.4c0.4-1.8,1.6-2.7,2.5-3.3c1-0.7,2.1-1.5,2.8-4.4
				c1-4.2,0.3-6.1-0.3-6.5c-0.4-0.2-0.9-0.1-1.3,0.2c-0.9,0.6-2.2,0.4-2.8-0.5c-0.6-0.9-0.4-2.2,0.5-2.8c1.8-1.3,4.1-1.4,5.9-0.2
				c1.8,1.2,3.5,4.1,1.9,10.7c-1,4.4-3.1,5.8-4.4,6.7c-0.8,0.5-0.8,0.6-0.8,0.8C141.1,89.4,140.3,90,139.3,90z"/>
		</g>
		<g>
			<path class="st4" d="M109.4,122.8c-15.5,0-29-14.5-32-34.5c-0.2-1.1,0.6-2.1,1.7-2.3c1.1-0.2,2.1,0.6,2.3,1.7
				c2.7,18,14.5,31,28,31s25.3-13.1,28-31c0.2-1.1,1.2-1.9,2.3-1.7c1.1,0.2,1.9,1.2,1.7,2.3C138.3,108.3,124.9,122.8,109.4,122.8z"
				/>
		</g>
		<g>
			<path class="st4" d="M97,187.7c-0.1,0-0.2,0-0.3,0c-18.1-2.4-35-10.2-48.7-22.5c-0.5-0.4-0.7-1-0.7-1.6
				c1.4-22.2,17.6-40.3,39.4-44.1l0.7-0.1c1.1-0.2,2.1,0.5,2.3,1.6c0.2,1.1-0.5,2.1-1.6,2.3l-0.6,0.1c-19.7,3.4-34.4,19.6-36,39.4
				c13,11.3,28.8,18.5,45.8,20.8c1.1,0.1,1.9,1.2,1.7,2.3C98.8,187,98,187.7,97,187.7z"/>
		</g>
		<g>
			<path class="st4" d="M102.9,86.9h-7c-1.1,0-2-0.9-2-2c0-1.1,0.9-2,2-2h7c1.1,0,2,0.9,2,2C105,86,104,86.9,102.9,86.9z"/>
		</g>
		<g>
			<path class="st4" d="M124.8,86.9h-7c-1.1,0-2-0.9-2-2c0-1.1,0.9-2,2-2h7c1.1,0,2,0.9,2,2C126.9,86,126,86.9,124.8,86.9z"/>
		</g>
		<g>
			<path class="st4" d="M109.4,110.8c-3.1,0-6.2-1.1-9.1-3.3c-0.9-0.7-1.1-1.9-0.4-2.8c0.7-0.9,1.9-1.1,2.8-0.4
				c4.4,3.3,8.9,3.3,13.3,0c0.9-0.7,2.2-0.5,2.8,0.4c0.7,0.9,0.5,2.2-0.4,2.8C115.6,109.7,112.4,110.8,109.4,110.8z"/>
		</g>
		<g>
			<path class="st4" d="M73,180.9c-1.1,0-2-0.9-2-2v-21.5c0-1.1,0.9-2,2-2c1.1,0,2,0.9,2,2v21.5C75.1,180,74.2,180.9,73,180.9z"/>
		</g>
		<g>
			<path class="st4" d="M146.8,179.9c-1.1,0-2-0.9-2-2v-20.5c0-1.1,0.9-2,2-2s2,0.9,2,2v20.5C148.8,179,147.9,179.9,146.8,179.9z"/>
		</g>
		<g>
			<path class="st4" d="M89.8,139.5c-0.7,0-1.4-0.4-1.7-1c-0.6-1-0.2-2.2,0.7-2.8l14.4-8.4c1-0.6,2.2-0.2,2.8,0.7
				c0.6,1,0.2,2.2-0.7,2.8l-14.4,8.4C90.5,139.4,90.2,139.5,89.8,139.5z"/>
		</g>
		<g>
			<path class="st4" d="M108.9,131.5c-8.3,0-16.3-3.1-22.5-8.6c-0.8-0.7-0.9-2-0.2-2.9c0.7-0.8,2-0.9,2.9-0.2
				c5.5,4.9,12.5,7.6,19.8,7.6c1.1,0,2,0.9,2,2C110.9,130.6,110,131.5,108.9,131.5z"/>
		</g>
		<g>
			<path class="st4" d="M129.5,140.5c-0.3,0-0.7-0.1-1-0.3l-15.9-9.4c-1-0.6-1.3-1.8-0.7-2.8c0.6-1,1.8-1.3,2.8-0.7l15.9,9.4
				c1,0.6,1.3,1.8,0.7,2.8C130.9,140.1,130.2,140.5,129.5,140.5z"/>
		</g>
		<g>
			<path class="st4" d="M108.9,131.5c-1.1,0-2-0.9-2-2c0-1.1,0.9-2,2-2c7.3,0,14.3-2.7,19.8-7.6c0.8-0.7,2.1-0.7,2.9,0.2
				c0.7,0.8,0.7,2.1-0.2,2.9C125.2,128.4,117.2,131.5,108.9,131.5z"/>
		</g>
		<g>
			<path class="st4" d="M108.9,188.4C108.9,188.4,108.9,188.4,108.9,188.4c-13.3,0-25.9-2.7-37.4-8c-8.7-4-16.9-9.3-23.5-15.2
				c-0.5-0.4-0.7-1-0.7-1.6c1.4-22.2,17.6-40.3,39.4-44.1l0.7-0.1c1.1-0.2,2.1,0.5,2.3,1.6c0.2,1.1-0.5,2.1-1.6,2.3l-0.6,0.1
				c-19.7,3.4-34.4,19.6-36,39.4c6.2,5.4,13.7,10.2,21.8,13.9c11,5,23,7.6,35.7,7.6c0,0,0.1,0,0.1,0c11.1,0,21.7-2,31.5-5.8
				c9.9-3.9,18.9-9.3,26.2-15.7c-1.7-19.8-16.3-36-36-39.4v0c0,0-0.1,0-0.1,0c0,0,0,0,0,0c-0.2,0-0.3-0.1-0.5-0.1
				c-1.1-0.1-1.9-1.1-1.8-2.2c0.1-1.1,1.1-1.9,2.2-1.8c0.3,0,0.5,0.1,0.7,0.1v0c0.1,0,0.1,0,0.2,0c21.8,3.8,38,22,39.4,44.1
				c0,0.6-0.2,1.2-0.7,1.6c-7.7,6.9-17.5,12.8-28.1,17.1C131.7,186.4,120.6,188.4,108.9,188.4z"/>
		</g>
		<g>
			<path class="st4" d="M109,186.2C108.9,186.2,108.9,186.2,109,186.2c-0.8,0-1.5-0.5-1.9-1.2l-25.6-60.2c-0.4-1,0-2.2,1.1-2.7
				c1-0.4,2.2,0,2.7,1.1l23.8,56l26.1-56c0.5-1,1.7-1.5,2.7-1c1,0.5,1.4,1.7,1,2.7l-28,60.1C110.5,185.7,109.7,186.2,109,186.2z"/>
		</g>
		<g>
			<path class="st4" d="M108.7,187.2c-0.5,0-1-0.2-1.4-0.6l-26.2-24.8c-0.5-0.5-0.7-1.2-0.6-1.9l2.1-9l-7.2-3.8
				c-0.8-0.4-1.2-1.3-1-2.2l4.2-19.8c0.2-1.1,1.3-1.8,2.4-1.6c1.1,0.2,1.8,1.3,1.6,2.4l-3.8,18.3l7.3,3.8c0.8,0.4,1.2,1.4,1,2.3
				l-2.2,9.4l25.3,24c0.8,0.8,0.8,2,0.1,2.9C109.8,187,109.3,187.2,108.7,187.2z"/>
		</g>
		<g>
			<path class="st4" d="M110.2,187.2c-0.5,0-1.1-0.2-1.5-0.6c-0.8-0.8-0.7-2.1,0.1-2.9l25.3-24l-2.2-9.4c-0.2-0.9,0.2-1.8,1-2.3
				l7.3-3.8l-3.8-18.3c-0.2-1.1,0.5-2.2,1.6-2.4c1.1-0.2,2.2,0.5,2.4,1.6l4.2,19.8c0.2,0.9-0.2,1.8-1,2.2l-7.2,3.8l2.1,9
				c0.2,0.7-0.1,1.4-0.6,1.9l-26.2,24.8C111.2,187,110.7,187.2,110.2,187.2z"/>
		</g>
		<g>
			<path class="st4" d="M81.6,82.6c-1,0-1.8-0.6-2-1.6c-0.1-0.6-2.9-15.4-3.1-21.5c0-0.2-0.6-21.1,20.2-28.3c0,0,0.1,0,0.1,0
				c0.2-0.1,20-5.8,31.9,8.8c3,0,5.9,1.2,8.4,3.5c3.8,3.4,6.5,9,6.6,13.7c0.3,4.1-3.8,20.1-4.7,23.3c-0.2,0.9-1,1.5-1.9,1.5
				c-0.9,0.1-1.7-0.5-2-1.4c-2.3-7.1-5-14.9-6.7-19c-1.1,1.6-2.3,2.9-3.7,4.1c-8.4,7.1-19.6,7.1-33.5,0.2c-2.3,3.9-7.4,13.2-7.6,15
				C83.4,81.8,82.6,82.5,81.6,82.6C81.6,82.6,81.6,82.6,81.6,82.6z M97.9,34.9c-17.9,6.3-17.5,23.7-17.5,24.4
				c0.1,3.3,1.1,9.4,1.9,14.2c2.5-5,5.9-10.7,6.5-11.5c0.6-0.8,1.7-1.1,2.6-0.6c13.1,7,23.4,7.4,30.7,1.2c1.9-1.6,3.4-3.6,4.5-6.1
				c0.3-0.6,0.8-1,1.5-1.1c0.6-0.1,1.3,0.1,1.8,0.5c1.4,1.4,4.4,9.6,6.9,16.9c1.6-6.5,3.1-13.5,2.9-15.4c0,0,0-0.1,0-0.1
				c-0.1-3.1-1.9-7.9-5.3-10.9c-2-1.8-4.2-2.7-6.5-2.5c-0.7,0.1-1.3-0.2-1.8-0.8C116.2,29.9,99.1,34.6,97.9,34.9z"/>
		</g>
		<g>
			<path class="st6" d="M34.7,136.8c-1.1,0-2-0.9-2-2v-28.5c0-1.1,0.9-2,2-2s2,0.9,2,2v28.5C36.7,135.9,35.8,136.8,34.7,136.8z"/>
		</g>
		<g>
			<path class="st6" d="M157.9,73.8c-1.1,0-2-0.9-2-2V44.9c0-1.1,0.9-2,2-2c1.1,0,2,0.9,2,2v26.9C159.9,72.9,159,73.8,157.9,73.8z"
				/>
		</g>
		<g>
			<path class="st6" d="M151.8,51.3c-0.5,0-1-0.2-1.4-0.6c-0.8-0.8-0.8-2,0-2.8l5.9-5.9c0.7-0.7,1.9-0.8,2.7-0.1l6,5.2
				c0.8,0.7,0.9,2,0.2,2.8c-0.7,0.8-2,0.9-2.8,0.2l-4.6-4l-4.6,4.6C152.9,51.1,152.3,51.3,151.8,51.3z"/>
		</g>
		<circle class="st6" cx="34.5" cy="142" r="2"/>
		<circle class="st6" cx="158" cy="79.3" r="2"/>
	</g>
</g>
<g class="st0">
	<g class="st3">
		<path class="st5" d="M180.8,158.3V83.6c0-3.1-2.5-5.6-5.6-5.6H161l-0.5,8.3h11.7v72H180.8z"/>
	</g>
	<g class="st3">
		<path class="st5" d="M38.7,156.8V82.1c0-3.1,2.5-5.6,5.6-5.6h14.2l0.5,8.3H47.2v72H38.7z"/>
	</g>
	<g class="st3">
		<path class="st5" d="M88.5,94.2L99.4,98v5.3l-16.4-7v-4.5l16.4-7v5.3L88.5,94.2z"/>
		<path class="st5" d="M105.6,108.3h-4.1l10.2-30.2h4.1L105.6,108.3z"/>
		<path class="st5" d="M129.7,94.1l-11.1-3.9v-5.3l16.6,7v4.5l-16.6,7V98L129.7,94.1z"/>
	</g>
	<g class="st3">
		<path class="st6" d="M159.1,58.2c0-3.3-2.7-6-6-6H65.4c-3.3,0-6,2.7-6,6v8.6h99.7V58.2z"/>
	</g>
	<g class="st3">
		<path class="st5" d="M117.9,158.1c-1.6,2.7-3.7,2.2-10.7,2.2c-1.6,0-3-0.9-3.7-2.2H34.9v1.1c0,4.2,3.4,7.6,7.6,7.6h135.7
			c4.2,0,7.6-3.4,7.6-7.6v-1.1H117.9z"/>
	</g>
	<g class="st3">
		<path class="st4" d="M48.8,175.7c0,3,4.5,3,4.5,0C53.3,172.8,48.8,172.8,48.8,175.7z"/>
	</g>
	<g class="st3">
		<path class="st4" d="M168.6,65.9c0,3,4.5,3,4.5,0C173.1,62.9,168.6,62.9,168.6,65.9z"/>
	</g>
	<g class="st3">
		<path class="st4" d="M58,156.5V66.6c0-2.6,4-2.6,4,0v89.9C61.9,159.1,58,159.1,58,156.5z"/>
	</g>
	<g class="st3">
		<path class="st4" d="M159.1,156.5V66.6c0-2.6,4-2.6,4,0v89.9C163.1,159.1,159.1,159.1,159.1,156.5z"/>
	</g>
	<g class="st3">
		<path class="st4" d="M168.4,58.4c0-7.7-6.3-14-14-14h-58c-2.6,0-2.6-4,0-4h58c9.9,0,18,8.1,18,18C172.4,61,168.4,61,168.4,58.4z"
			/>
	</g>
	<g class="st3">
		<path class="st4" d="M161,68.6c-0.1,0-101,0-101.1,0c-1.1,0-2-0.9-2-2v-8.2c0-4.8,3.9-8.7,8.7-8.7h87.7c4.8,0,8.7,3.9,8.7,8.7v8.2
			C163.1,67.8,162.1,68.7,161,68.6z M61.9,64.6h97.2v-6.2c0-2.6-2.1-4.7-4.7-4.7H66.7c-2.6,0-4.7,2.1-4.7,4.7V64.6z"/>
	</g>
	<g class="st3">
		<path class="st4" d="M37.2,158.1V83.3c0-4.1,3.3-7.4,7.4-7.4H58c2.6,0,2.6,4,0,4H44.6c-1.9,0-3.4,1.5-3.4,3.4v74.7
			C41.2,160.7,37.2,160.7,37.2,158.1z"/>
	</g>
	<g class="st3">
		<path class="st4" d="M179.4,158.1V83.3c0-1.9-1.5-3.4-3.4-3.4h-13.4c-2.6,0-2.6-4,0-4H176c4.1,0,7.4,3.3,7.4,7.4v74.7
			C183.4,160.7,179.4,160.7,179.4,158.1z"/>
	</g>
	<g class="st3">
		<path class="st4" d="M45.9,156.6V87.1c0-1.4,1.1-2.5,2.5-2.5H58c2.6,0,2.6,4,0,4h-8.1v68C49.9,159.3,45.9,159.3,45.9,156.6z"/>
	</g>
	<g class="st3">
		<path class="st4" d="M170.7,155.5v-67h-8.1c-2.6,0-2.6-4,0-4h9.6c1.4,0,2.5,1.1,2.5,2.5v68.4C174.7,158.2,170.7,158.2,170.7,155.5
			z M172.2,88.6L172.2,88.6L172.2,88.6z"/>
	</g>
	<g class="st3">
		<path class="st4" d="M178.2,168.7H42.5c-5.3,0-9.6-4.3-9.6-9.6v-1.1c0-1.1,0.9-2,2-2h68.6c2,0,1.6,2.2,3.7,2.2
			c7.2,0,8.1,0.3,8.9-1.2c0.8-1.4-3.4-1,69.6-1c1.1,0,2,0.9,2,2v1.1C187.7,164.4,183.4,168.7,178.2,168.7z M36.9,160.1
			c0.4,2.6,2.7,4.7,5.5,4.7h135.7c2.8,0,5.1-2,5.5-4.7h-64.8c-2.4,2.7-4.8,2.2-11.7,2.2c-1.8,0-3.6-0.8-4.7-2.2H36.9z"/>
	</g>
	<g class="st3">
		<path class="st4" d="M192.2,168.6h-17.5c-2.6,0-2.6-4,0-4h17.5c1.1,0,2,0.9,2,2C194.2,167.7,193.3,168.6,192.2,168.6z"/>
	</g>
	<g class="st3">
		<path class="st4" d="M46.9,168.6H29.5c-2.6,0-2.6-4,0-4h17.5c1.1,0,2,0.9,2,2C48.9,167.7,48,168.6,46.9,168.6z"/>
	</g>
	<g class="st3">
		<path class="st4" d="M170.2,178h-111c-2.6,0-2.6-4,0-4h111c1.1,0,2,0.9,2,2C172.2,177.1,171.3,178,170.2,178z"/>
	</g>
	<g class="st3">
		<path class="st4" d="M67.8,59.5c0,2.9,4.4,2.9,4.4,0C72.2,56.6,67.8,56.6,67.8,59.5z"/>
	</g>
	<g class="st3">
		<path class="st4" d="M75.7,59.5c0,2.9,4.4,2.9,4.4,0C80.1,56.6,75.7,56.6,75.7,59.5z"/>
	</g>
	<g class="st3">
		<path class="st4" d="M83.6,59.5c0,2.9,4.4,2.9,4.4,0C88,56.6,83.6,56.6,83.6,59.5z"/>
	</g>
	<g class="st3">
		<path class="st4" d="M142.7,123.1h-3c-2.6,0-2.6-4,0-4h3c1.1,0,2,0.9,2,2S143.8,123.1,142.7,123.1z M129.7,123.1h-3
			c-2.6,0-2.6-4,0-4h3C132.3,119.1,132.3,123.1,129.7,123.1z M116.7,123.1h-3c-2.6,0-2.6-4,0-4h3
			C119.3,119.1,119.3,123.1,116.7,123.1z M103.7,123.1h-3c-2.6,0-2.6-4,0-4h3C106.3,119.1,106.3,123.1,103.7,123.1z M90.7,123.1h-3
			c-2.6,0-2.6-4,0-4h3C93.3,119.1,93.3,123.1,90.7,123.1z M77.7,123.1h-3c-2.6,0-2.6-4,0-4h3c1.1,0,2,0.9,2,2S78.8,123.1,77.7,123.1
			z"/>
	</g>
	<g class="st3">
		<path class="st4" d="M143.4,145.2H93.2c-2.6,0-2.6-4,0-4h50.2c1.1,0,2,0.9,2,2C145.4,144.3,144.5,145.2,143.4,145.2z"/>
	</g>
	<g class="st3">
		<path class="st4" d="M82.6,144.7h-8.2c-2.6,0-2.6-4,0-4h8.2C85.2,140.7,85.2,144.7,82.6,144.7z"/>
	</g>
	<g class="st3">
		<path class="st4" d="M143.7,133.7H74.8c-2.6,0-2.6-4,0-4h68.9c1.1,0,2,0.9,2,2C145.7,132.8,144.8,133.7,143.7,133.7z"/>
	</g>
</g>
<g class="st0">
	<g class="st3">
		<circle class="st6" cx="161.9" cy="169.5" r="7"/>
	</g>
	<g id="gear-5-icon_18_" class="st3">
		<g>
			<path class="st5" d="M137.3,151l-1.9-7.4l-7.4,0.2c-1.1-1.4-2.9-1.3-4.3-2.4l0.6-7.4l-6.5-3.2l-5.1,5.4c-1.7-0.2-3.4-0.3-5.2-0.1
				l-4.8-5.7l-7.4,2.8l0.2,7.4c-1.4,1.1-2.7,2.2-3.8,3.6l-7.4-0.6l-3.2,7.2l5.4,5.1c-0.2,1.7-0.3,3.4-0.1,5.2l-5.7,4.8l2.8,7.4
				l7.4-0.2c1.1,1.4,2.2,2.7,3.6,3.8l-0.6,7.4l6.5,3.2l5.1-5.4c1.7,0.2,2.7,1,4.5,0.8l4.8,5.7l6.6-2.7l-0.2-7.4
				c1.4-1,4.8-3.1,5.9-4.4l7.4,0.6l3.2-7.2l-5.4-5.1c0.2-1.7-0.6-4.8-0.8-6.6L137.3,151z M110.4,167.9c-5.6,2.1-11.8-0.7-13.9-6.2
				c-2.1-5.6,0.7-11.8,6.2-13.9c5.5-2.1,11.8,0.7,13.9,6.2C118.7,159.5,115.9,165.8,110.4,167.9z"/>
		</g>
	</g>
	<g class="st3">
		<path class="st4" d="M52.3,172.3c0,3,4.5,3,4.5,0C56.7,169.3,52.3,169.3,52.3,172.3z"/>
	</g>
	<g id="gear-5-icon_7_" class="st3">
		<path class="st4" d="M107.2,185c-1.3,0.1-2.7,0-4-0.1c-5,5.2-5.5,6.3-7.2,5.6c-8.1-3.6-9.2-3.7-9-5.5l0.6-7.1
			c-1-0.9-1.9-1.9-2.8-2.9c-7.3,0.2-8.4,0.6-9-1.1c-3.2-8.3-3.9-9.1-2.5-10.3l5.4-4.6c-0.1-1.3,0-2.7,0.1-4c-5.2-5-6.3-5.5-5.6-7.2
			c3.6-8.2,3.7-9.2,5.5-9l7.1,0.6c0.9-1,1.9-1.9,2.9-2.8c-0.2-7.2-0.6-8.4,1.1-9l8-3.1c1.7-0.7,2.2,0.5,6.9,6c1.3-0.1,2.7,0,4,0.1
			l4.9-5.1c1.3-1.3,2-0.6,10.1,3.1c1.7,0.7,1.2,1.9,0.6,9.1c1,0.9,1.9,1.9,2.8,2.9l7.1-0.2c1.9,0,1.9,1.2,5,9.3
			c0.7,1.7-0.5,2.2-6,6.9c0.1,1.3,0,2.7-0.1,4l5.1,4.9c1.3,1.3,0.6,2-3.1,10.1c-0.7,1.7-1.8,1.2-9.1,0.6c-0.9,1-1.9,1.9-2.9,2.8
			l0.2,7.1c0,1.8-1,1.8-9.3,5C112.3,191.6,111.9,190.5,107.2,185z M113.9,186.7l5.4-2.1c-0.2-7.1-0.4-7.5,0.6-8.3
			c6.5-4.9,1-4.6,12.1-3.7l2.4-5.3c-5.1-4.9-5.6-5-5.5-6.4c1.2-8.1-2.6-4,5.9-11.2l-2.1-5.4c-7.2,0.2-7.5,0.4-8.3-0.6
			c-4.9-6.5-4.6-1-3.7-12.1l-5.3-2.4c-4.9,5.1-5,5.6-6.4,5.5c-8.1-1.1-4,2.5-11.2-5.9l-5.4,2.1c0.2,7,0.4,7.5-0.6,8.3
			c-6.6,4.9-1,4.6-12.1,3.7l-2.4,5.3c5.2,4.9,5.6,5,5.4,6.4c-1.1,8.1,2.5,4-5.9,11.2l2.1,5.4c7.2-0.2,7.5-0.4,8.3,0.6
			c4.9,6.5,4.6,1.1,3.8,12.1l5.3,2.4c7.8-8.1,3.4-4.6,11.5-5.3C109.2,180.8,109.3,181.4,113.9,186.7z M100.3,170.2
			c-11.1-5-10.7-21,0.7-25.4c7.1-2.7,15,0.8,17.7,7.9C123.1,164.3,111.4,175.2,100.3,170.2z M102.5,148.6c-8.1,3.1-8.4,14.5-0.5,18
			c2.4,1.1,5,1.1,7.4,0.2c0,0,0,0,0,0c8.1-3.1,8.3-14.5,0.5-18C107.5,147.8,104.9,147.7,102.5,148.6z"/>
	</g>
	<g id="gear-5-icon_6_" class="st3">
		<path class="st4" d="M155.9,137.3c-0.6,0-1.3,0-1.9-0.1c-2.8,2.9-3.5,4.2-5.1,3.5c-7.2-3.2-6.4-1.8-5.8-8.4
			c-0.5-0.4-0.9-0.9-1.3-1.4c-4,0.1-5.4,0.5-6.1-1.2c-2.9-7.5-3.1-5.8,1.8-10.1c0-0.6,0-1.3,0.1-1.9c-2.8-2.7-4.2-3.5-3.5-5.1
			c2.2-4.9,2.4-6.3,4.2-6.2l4.2,0.3c0.4-0.5,0.9-0.9,1.4-1.3c-0.2-6.6-1.1-5.2,6.3-8c1.7-0.6,2.4,0.8,4.9,3.7c0.6,0,1.3,0,1.9,0.1
			c2.8-2.9,3.5-4.2,5.1-3.5c7.3,3.3,6.4,1.9,5.8,8.4c0.5,0.4,0.9,0.9,1.3,1.4c4-0.1,5.4-0.5,6.1,1.2c2.9,7.5,3.1,5.8-1.8,10.1
			c0,0.6,0,1.3-0.1,1.9c3,2.8,4.2,3.5,3.5,5.1c-3.2,7.2-1.7,6.4-8.4,5.8c-0.4,0.5-0.9,0.9-1.4,1.3c0.1,6.4,1.2,5.2-6.3,8
			C159.2,141.7,158.5,140.3,155.9,137.3z M160.8,136.8l2.5-0.9c-0.1-3.8-0.3-4.6,0.7-5.4c4.2-3.2,0.9-3.1,7.7-2.6l1.1-2.4
			c-2.8-2.6-3.5-3-3.3-4.3c0.7-5.2-1.6-2.8,3.6-7.2l-0.9-2.5c-3.8,0.1-4.6,0.4-5.4-0.7c-3.2-4.2-3.1-0.9-2.6-7.7l-2.4-1.1
			c-2.6,2.7-3,3.5-4.3,3.3c-5.2-0.7-2.8,1.6-7.3-3.6l-2.5,0.9c0.1,3.9,0.3,4.6-0.7,5.4c-4.1,3.1-0.8,3.1-7.7,2.6l-1.1,2.4
			c2.7,2.6,3.5,3,3.3,4.3c-0.7,5.2,1.6,2.8-3.6,7.3l0.9,2.5c3.9-0.1,4.6-0.3,5.4,0.7c3.2,4.2,3.1,0.9,2.6,7.7l2.4,1.1
			c4.7-5,2.5-2.8,7.4-3.2C158,133.1,158.3,133.9,160.8,136.8z M151.6,127.8c-7.7-3.4-7.3-14.5,0.5-17.5c4.9-1.9,10.3,0.6,12.2,5.5
			c1.9,4.9-0.6,10.3-5.5,12.2l0,0C156.6,128.9,154,128.9,151.6,127.8z M150.4,121.2c1.1,2.8,4.2,4.2,7,3.1c0,0,0,0,0,0
			c4.5-1.7,4.7-8.1,0.3-10.1C153.3,112.3,148.6,116.6,150.4,121.2z"/>
	</g>
	<g class="st3">
		<g>
			<path class="st6" d="M85.2,80.5h-15V64.7h15C85.3,67.3,86.1,72.7,85.2,80.5z"/>
		</g>
		<g>
			<path class="st6" d="M137.3,64.5c0.2,0.9,0,1.9-0.7,2.9c-1.6,2.2-1.9,4.1-4.2,5.7c-1.4,1-4.2,0.8-5.7-1.2
				c-2.1,2.3-9.5,3.4-11.9,0.7c-2.3,1.6-5.3,2.3-7.9,1c-2.8-1.4-1.8-4.3-5-4.1c-1.2,0.1-2.4,0.7-3.7,0.9c0.1,3.9-1.1,5.6,1.6,10.1
				H154v-16H137.3z"/>
		</g>
		<g>
			<path class="st4" d="M54.2,74.5h-8c-2.6,0-2.6-4,0-4h8C56.9,70.5,56.9,74.5,54.2,74.5z"/>
		</g>
		<g>
			<path class="st4" d="M69.4,82.3c-19.3-8.6-19.2-8-19.2-9.8c0-1.8-0.1-1.3,19.2-9.8c2.4-1.1,4,2.6,1.6,3.7l-13.9,6.2l13.9,6.2
				C73.5,79.7,71.8,83.4,69.4,82.3z"/>
		</g>
		<g>
			<path class="st4" d="M84.1,82.5H70.2c-1.1,0-2-0.9-2-2v-16c0-1.1,0.9-2,2-2h15c2.6,0,2.6,4,0,4h-13v12h11.8c1.1,0,2,0.9,2,2
				S85.2,82.5,84.1,82.5z"/>
		</g>
		<g>
			<path class="st4" d="M154.2,82.5h-50c-2.6,0-2.6-4,0-4h48v-12h-15c-2.6,0-2.6-4,0-4h17c1.1,0,2,0.9,2,2v16
				C156.2,81.6,155.3,82.5,154.2,82.5z"/>
		</g>
		<g>
			<path class="st4" d="M96.1,70.7c0-1.1,0.9-2,2-2c1.9,0,3.5-1.6,3.5-3.5v-7.4c0-4.7-7.1-4.7-7.1,0v3.9c0,2.6-4,2.6-4,0v-3.9
				c0-4.2,3.4-7.5,7.5-7.5s7.5,3.4,7.5,7.5v7.4C105.6,72.4,96.1,74.8,96.1,70.7z"/>
		</g>
		<g>
			<path class="st4" d="M109.2,76.4c-4.2,0-7.5-3.4-7.5-7.5V57.4c0-4.2,3.4-7.5,7.5-7.5s7.5,3.4,7.5,7.5v11.4
				C116.7,73,113.3,76.4,109.2,76.4z M105.6,57.4v11.4c0,4.7,7.1,4.7,7.1,0V57.4C112.7,52.8,105.6,52.8,105.6,57.4z"/>
		</g>
		<g>
			<path class="st4" d="M120.2,76.8c-4.2,0-7.5-3.4-7.5-7.5V57.8c0-4.2,3.4-7.5,7.5-7.5c4.2,0,7.5,3.4,7.5,7.5v11.4
				C127.7,73.4,124.4,76.8,120.2,76.8z M116.7,57.8v11.4c0,4.7,7.1,4.7,7.1,0V57.8C123.7,53.2,116.7,53.2,116.7,57.8z"/>
		</g>
		<g>
			<path class="st4" d="M131.3,75.2c-4.2,0-7.5-3.4-7.5-7.5v-5.4c0-4.2,3.4-7.5,7.5-7.5c4.2,0,7.5,3.4,7.5,7.5v5.4
				C138.8,71.8,135.4,75.2,131.3,75.2z M127.7,62.3v5.4c0,4.7,7.1,4.7,7.1,0v-5.4C134.8,57.7,127.7,57.7,127.7,62.3z"/>
		</g>
		<g>
			<path class="st4" d="M99.2,114.3c-2.1,0-13.4-10.5-16-25.8c-1.1-6.7,0.5-7.7,0.3-16.5c-0.2-6.6-1.3-9.4,1.3-11.3
				c4.1-3,17,2.1,15,16.8c7.6,1.5,13.9,6.4,17.5,13.2c0.5,1,0.1,2.2-0.8,2.7c-3.2,1.7-2.4-3.9-9.9-8.9c-3.5-2.3-7-3.1-9.3-3.4
				c-1.2-0.1-2-1.3-1.7-2.5c3.1-12.2-7.2-15.6-8.4-14.7c-0.1,0.3,0.3,7.7,0.4,8c0.2,9.2-1.4,10-0.4,16c1.4,8.2,5.8,16.9,13.3,22.9
				c0.9,0.7,1,2,0.3,2.8C100.4,114,99.8,114.3,99.2,114.3z"/>
		</g>
		<g>
			<path class="st4" d="M88.2,122.9v-10.6c0-1.1,0.9-2,2-2h37.5c2.6,0,2.6,4,0,4H92.2v8.6C92.2,125.5,88.2,125.5,88.2,122.9z"/>
		</g>
		<g>
			<path class="st4" d="M162.2,82.5h-8c-1.1,0-2-0.9-2-2v-16c0-1.1,0.9-2,2-2h8c3.3,0,6,2.7,6,6v8C168.2,79.8,165.5,82.5,162.2,82.5
				z M156.2,78.5c9.5,0,8,1.4,8-10c0-1.1-0.9-2-2-2h-6V78.5z"/>
		</g>
		<g>
			<path class="st4" d="M110.2,33.7v-4.5c0-2.6,4-2.6,4,0v4.5C114.2,36.4,110.2,36.4,110.2,33.7z"/>
		</g>
		<g>
			<path class="st4" d="M89.8,40.3l-2.3-3.9c-1.3-2.3,2.1-4.3,3.5-2l2.3,3.9c0.6,1,0.2,2.2-0.7,2.7C91.5,41.6,90.3,41.2,89.8,40.3z"
				/>
		</g>
		<g>
			<path class="st4" d="M75.3,56.2l-3.9-2.3c-2.3-1.3-0.3-4.8,2-3.5l3.9,2.3c1,0.6,1.3,1.8,0.7,2.7C77.5,56.4,76.3,56.8,75.3,56.2z"
				/>
		</g>
		<g>
			<path class="st4" d="M147.2,52.7l3.9-2.3c2.3-1.3,4.3,2.1,2,3.5l-3.9,2.3C146.9,57.5,144.9,54.1,147.2,52.7z"/>
		</g>
		<g>
			<path class="st4" d="M131.3,38.3l2.3-3.9c1.3-2.3,4.8-0.3,3.5,2l-2.3,3.9C133.4,42.6,129.9,40.6,131.3,38.3z"/>
		</g>
		<g>
			<path class="st4" d="M137.7,95.3v-15c0-2.6,4-2.6,4,0v15C141.7,97.9,137.7,97.9,137.7,95.3z"/>
		</g>
	</g>
	<g class="st3">
		<path class="st4" d="M160.4,157.5v-12c0-2.6,4-2.6,4,0v12C164.4,160.1,160.4,160.1,160.4,157.5z"/>
	</g>
	<g class="st3">
		<path class="st4" d="M149.9,172.5h-9.5c-2.6,0-2.6-4,0-4h9.5c1.1,0,2,0.9,2,2C151.9,171.6,151,172.5,149.9,172.5z"/>
	</g>
	<g class="st3">
		<path class="st4" d="M161.9,178.5c-5,0-9-4-9-9s4-9,9-9s9,4,9,9S166.9,178.5,161.9,178.5z M161.9,164.5c-2.8,0-5,2.2-5,5
			c0,2.8,2.2,5,5,5c2.8,0,5-2.2,5-5C166.9,166.7,164.7,164.5,161.9,164.5z"/>
	</g>
	<g class="st3">
		<path class="st4" d="M62.9,171.7c-5.1-18.5,1-39.3,17.7-51.8c2.1-1.6,4.5,1.6,2.4,3.2c-15.3,11.5-21,30.4-16.3,47.6
			c0.3,1.1-0.3,2.2-1.4,2.5C64.3,173.4,63.2,172.8,62.9,171.7z"/>
	</g>
	<g class="st3">
		<path class="st4" d="M51,163.2c-1.9-17.7,5-34.8,17.5-46.2c1.9-1.8,4.7,1.2,2.7,3c-11.6,10.6-17.9,26.4-16.2,42.8
			c0.1,1.1-0.7,2.1-1.8,2.2C52.2,165.1,51.2,164.3,51,163.2z"/>
	</g>
</g>
<g class="st0">
	<g class="st3">
		<path class="st5" d="M120.8,76.6c0,0-7.3-28,25.8-33.5l-1.3,7.5l10-3l-1.3,6l8.3-2l-1.3,4.3c0,0,8.5,8.3,5.3,20.5l-5,0.3l-4.3-9.3
			c0,0-10,12.5-26.5,0l-5.5,9.5L120.8,76.6z"/>
		<path class="st5" d="M115,93.6v-3.7c0-5-4-9-9-9h-4.1v21.8h4.1C110.9,102.6,115,98.6,115,93.6z"/>
		<path class="st5" d="M54.2,102.6h4.1V80.8h-4.1c-5,0-9,4-9,9v3.7C45.2,98.6,49.2,102.6,54.2,102.6z"/>
		<path class="st6" d="M39.3,143.2c0,0,8.3-16.3,25-18.3c0,0,19,33.3,33.3,0c0,0,18.3,4.3,26.3,18.3l-14.3,9.3l0.3,14.7
			c0,0-13.3,8-28.7,7.3c-15.3-0.7-27.7-4.7-27.7-4.7l-0.3-17.7L39.3,143.2z"/>
	</g>
	<g class="st3">
		<path class="st4" d="M185.3,157c-0.6,1-1.8,1.3-2.8,0.8c-1-0.6-1.3-1.8-0.8-2.8s1.8-1.3,2.8-0.8C185.6,154.7,185.9,156,185.3,157z
			"/>
		<g>
			<path class="st4" d="M53.6,170.8c-1.1,0-2-0.9-2-2v-15.1l-12.7-9c-0.9-0.6-1.1-1.9-0.5-2.8c0.6-0.9,1.9-1.1,2.8-0.5l13.5,9.6
				c0.5,0.4,0.8,1,0.8,1.6v16.2C55.6,169.9,54.7,170.8,53.6,170.8z"/>
		</g>
		<g>
			<path class="st4" d="M109.6,169.9c-1.1,0-2-0.9-2-2v-15.4c0-0.7,0.3-1.3,0.9-1.7l13.4-8.9c0.9-0.6,2.2-0.4,2.8,0.6
				c0.6,0.9,0.4,2.2-0.6,2.8l-12.5,8.3v14.3C111.6,169,110.7,169.9,109.6,169.9z"/>
		</g>
		<g>
			<path class="st4" d="M81.2,176.4h-0.2c-17.3,0-34-6.2-47-17.5c-0.5-0.4-0.7-1-0.7-1.6c1.1-17.2,13.7-31.3,30.7-34.3
				c0,0,0.1,0,0.1,0c0,0,0.1,0,0.1,0c0.1,0,0.2,0,0.3-0.1c0.5-0.1,0.9,0,1.3,0.3l0.8,0.5c0.5,0.3,0.9,0.9,0.9,1.5
				c0.7,6.9,6.7,12,13.8,12c7.1,0,13-5.2,13.8-12c0-0.3,0.1-0.6,0.3-0.8l0.3-0.5c0.4-0.7,1.2-1,1.9-0.9c0.2,0,0.4,0,0.5,0.1
				c0,0,0.1,0,0.1,0c16.8,2.9,29.4,16.9,30.7,33.9c0,0.6-0.2,1.2-0.7,1.6C115.5,170,98.7,176.3,81.2,176.4z M37.4,156.5
				c12.2,10.2,27.7,15.8,43.6,15.8h0.2c16.1,0,31.7-5.8,43.9-16.2c-1.5-14.3-12.1-26-26.1-29c-1.6,8.1-8.9,14-17.5,14
				c-8.7,0-15.9-6-17.5-14.1C49.5,130,38.8,141.9,37.4,156.5z"/>
		</g>
		<g>
			<path class="st4" d="M108.4,82.8c-1.1,0-2-0.9-2-2V72c0-12-10.4-21.8-23.2-21.8h-6.1C64.3,50.2,53.9,60,53.9,72v8.6
				c0,1.1-0.9,2-2,2c-1.1,0-2-0.9-2-2V72c0-14.2,12.2-25.8,27.2-25.8h6.1c15,0,27.2,11.6,27.2,25.8v8.8
				C110.4,81.9,109.5,82.8,108.4,82.8z"/>
		</g>
		<g>
			<path class="st4" d="M59.8,87.8c-0.3,0-0.6,0-0.9-0.1c-1.1-0.1-1.9-1.1-1.7-2.2c0.1-1.1,1.1-1.9,2.2-1.7c2.2,0.3,10.2-2,14.5-6.8
				c0.7-0.8,2-0.9,2.8-0.1c0.8,0.7,0.9,2,0.1,2.8C72.2,84.8,64,87.8,59.8,87.8z"/>
		</g>
		<g>
			<path class="st4" d="M80.5,124.2c-1.8,0-3.5-0.2-5.2-0.7c-1.1-0.3-1.7-1.4-1.4-2.5c0.3-1.1,1.4-1.7,2.5-1.4
				c1.4,0.4,2.7,0.6,4.1,0.6c9.9,0,18.3-9.5,19.4-22c0.1-1.1,1.1-1.9,2.2-1.8c1.1,0.1,1.9,1.1,1.8,2.2
				C102.6,113.2,92.5,124.2,80.5,124.2z"/>
		</g>
		<g>
			<path class="st4" d="M61.4,109.9c-0.8,0-1.5-0.4-1.8-1.2c-0.2-0.4-0.4-0.8-0.5-1.2c-1.2-2.5-2.5-5.3-2.7-8.9
				c-0.1-1.1,0.8-2,1.9-2.1c1.1-0.1,2,0.8,2.1,1.9c0.2,2.9,1.2,5.1,2.3,7.5c0.2,0.4,0.4,0.8,0.6,1.2c0.5,1,0,2.2-1,2.6
				C62,109.8,61.7,109.9,61.4,109.9z"/>
		</g>
		<g>
			<path class="st4" d="M75.8,98.2h-5.1c-1.1,0-2-0.9-2-2c0-1.1,0.9-2,2-2h5.1c1.1,0,2,0.9,2,2C77.8,97.3,76.9,98.2,75.8,98.2z"/>
		</g>
		<g>
			<path class="st4" d="M91.8,98.2h-5.1c-1.1,0-2-0.9-2-2c0-1.1,0.9-2,2-2h5.1c1.1,0,2,0.9,2,2C93.8,97.3,92.9,98.2,91.8,98.2z"/>
		</g>
		<g>
			<path class="st4" d="M106.7,104.6h-4.8c-1.1,0-2-0.9-2-2V80.8c0-1.1,0.9-2,2-2h4.8c5.7,0,10.3,4.6,10.3,10.3v5.2
				C116.9,100,112.3,104.6,106.7,104.6z M103.9,100.6h2.8c3.5,0,6.3-2.8,6.3-6.3v-5.2c0-3.5-2.8-6.3-6.3-6.3h-2.8V100.6z"/>
		</g>
		<g>
			<path class="st4" d="M58.4,104.6h-4.8c-5.7,0-10.3-4.6-10.3-10.3v-5.2c0-5.7,4.6-10.3,10.3-10.3h4.8c1.1,0,2,0.9,2,2v21.7
				C60.4,103.7,59.5,104.6,58.4,104.6z M53.6,82.8c-3.5,0-6.3,2.8-6.3,6.3v5.2c0,3.5,2.8,6.3,6.3,6.3h2.8V82.8H53.6z"/>
		</g>
		<g>
			<path class="st4" d="M71.4,117.6h-6c-8.7,0-15.6-6.6-15.6-15c0-1.1,0.9-2,2-2c1.1,0,2,0.9,2,2c0,6.2,5.1,11.1,11.6,11.1h6
				c1.1,0,2,0.9,2,2C73.4,116.7,72.5,117.6,71.4,117.6z"/>
		</g>
		<path class="st4" d="M73.9,109.1h-2.8c-2.2,0-4.1,1.8-4.1,4.1v0.6c0,2.2,1.8,4.1,4.1,4.1h2.8c2.2,0,4.1-1.8,4.1-4.1v-0.6
			C78,110.9,76.1,109.1,73.9,109.1z"/>
		<g>
			<path class="st4" d="M78.4,87.9c-0.8,0-1.6-0.5-1.9-1.3c-0.4-1,0.2-2.2,1.2-2.5c1.7-0.6,6.2-2.7,7.2-5.8c0.2-0.5,0.5-0.9,1-1.2
				c0.5-0.2,1-0.3,1.5-0.1l13.4,4.6c1,0.4,1.6,1.5,1.2,2.5c-0.4,1-1.5,1.6-2.5,1.2l-11.7-4c-2.6,4.3-8.6,6.4-8.8,6.5
				C78.9,87.9,78.7,87.9,78.4,87.9z"/>
		</g>
		<g>
			<path class="st4" d="M99.3,84.9c-0.2,0-0.4,0-0.6-0.1c-1.1-0.3-1.6-1.4-1.3-2.5C99,77,97,72.6,94.1,71.5c-1-0.4-1.5-1.5-1.2-2.6
				c0.4-1,1.5-1.5,2.6-1.2c5.3,2,7.8,8.9,5.7,15.7C100.9,84.4,100.2,84.9,99.3,84.9z"/>
		</g>
		<g>
			<path class="st4" d="M59.2,85.8c-1,0-1.8-0.7-2-1.7c-1.1-7.3,1.6-15,7.4-20.6c5.6-5.5,13.1-7.9,20.4-6.6c1.1,0.2,1.8,1.2,1.6,2.3
				c-0.2,1.1-1.2,1.8-2.3,1.6c-6-1.1-12.2,0.9-16.9,5.5c-4.8,4.7-7.2,11.1-6.2,17.2c0.2,1.1-0.6,2.1-1.7,2.3
				C59.4,85.8,59.3,85.8,59.2,85.8z"/>
		</g>
		<g>
			<path class="st4" d="M87.7,67.5c-0.5,0-0.9-0.2-1.3-0.5c-0.6-0.5-0.8-1.3-0.6-2l1.2-4.4c0.3-1.1,1.4-1.7,2.4-1.4
				c1.1,0.3,1.7,1.4,1.4,2.4l-0.2,0.9c1.6-0.4,3.4-0.6,5-0.2c1.1,0.2,1.7,1.3,1.5,2.4c-0.2,1.1-1.3,1.7-2.4,1.5
				c-1.6-0.4-4.7,0.5-6.2,1.2C88.2,67.5,87.9,67.5,87.7,67.5z"/>
		</g>
		<g>
			<g>
				<path class="st4" d="M169.8,155.1c-1.1,0-2-0.9-2-2v-14.4c0-0.7,0.3-1.3,0.9-1.7l12.5-8.3c0.9-0.6,2.2-0.4,2.8,0.6
					c0.6,0.9,0.4,2.2-0.6,2.8l-11.6,7.7v13.3C171.8,154.2,170.9,155.1,169.8,155.1z"/>
			</g>
			<g>
				<path class="st4" d="M143.1,170.1c-3.1,0-6.3-0.2-9.4-0.6c-1.1-0.1-1.9-1.1-1.7-2.2c0.1-1.1,1.1-1.9,2.2-1.7
					c2.9,0.4,5.9,0.5,8.9,0.5h0.2c11.5,0,22.9-2.8,33-8c1-0.5,2.2-0.1,2.7,0.9c0.5,1,0.1,2.2-0.9,2.7c-10.7,5.5-22.8,8.4-34.8,8.5
					H143.1z"/>
			</g>
			<g>
				<path class="st4" d="M143.1,161.1c-2.8,0-5.6-0.2-8.3-0.5c-1.1-0.1-1.9-1.1-1.7-2.2c0.1-1.1,1.1-1.9,2.2-1.7
					c2.6,0.3,5.2,0.5,7.8,0.5h0.1c15.1,0,29.6-5.4,41-15.1c-1.4-13.3-11.2-24.2-24.2-27c-1.6,7.6-8.4,13.1-16.5,13.1
					c-8.1,0-15-5.6-16.5-13.2c-5.7,1.2-10.9,3.9-15.2,8c-0.8,0.8-2.1,0.7-2.8-0.1c-0.8-0.8-0.7-2.1,0.1-2.8c5-4.8,11.3-8,18.1-9.2
					l0.2,0c0.1,0,0.2,0,0.3-0.1c0.5-0.1,0.9,0,1.3,0.3l0.8,0.5c0.5,0.3,0.9,0.9,0.9,1.5c0.7,6.4,6.2,11.2,12.8,11.2
					c6.6,0,12.1-4.8,12.8-11.2c0-0.3,0.1-0.6,0.3-0.8l0.3-0.5c0.4-0.7,1.2-1,1.9-0.9c0.2,0,0.3,0,0.5,0.1c0,0,0.1,0,0.1,0
					c15.8,2.8,27.6,15.9,28.9,31.9c0,0.6-0.2,1.2-0.7,1.6c-12.2,10.8-28,16.7-44.4,16.8H143.1z"/>
			</g>
			<g>
				<path class="st4" d="M162.3,82.2c-0.8,0-1.5-0.5-1.9-1.3l-3.8-9.6c-0.9,0.8-1.8,1.4-2.9,2c-4.5,2.4-11,2.7-16,0.8
					c-2.9-1.1-5.3-2.7-6.8-3.8l-5,10.3c-0.5,1-1.7,1.4-2.7,0.9c-1-0.5-1.4-1.7-0.9-2.7l6.1-12.6c0.3-0.6,0.8-1,1.4-1.1
					c0.6-0.1,1.3,0.1,1.7,0.5c0,0,3.1,2.9,7.6,4.7c3.9,1.5,9.1,1.3,12.6-0.6c1.6-0.9,2.9-2,3.9-3.3c0.4-0.6,1.1-0.9,1.9-0.8
					c0.7,0.1,1.3,0.6,1.6,1.2l5,12.6c0.4,1-0.1,2.2-1.1,2.6C162.8,82.2,162.6,82.2,162.3,82.2z"/>
			</g>
			<g>
				<path class="st4" d="M122.9,88.9c-0.9,0-1.7-0.6-1.9-1.5c-0.1-0.1-0.2-0.2-0.3-0.2c-0.9-0.7-2.5-1.8-3.3-4.9
					c-1.1-4.6,0.8-6.7,2-7.5c2-1.3,4.4-1,5.8,0c0.9,0.6,1.1,1.9,0.5,2.8c-0.6,0.9-1.9,1.1-2.8,0.5c-0.2-0.1-0.8-0.2-1.3,0.1
					c-0.6,0.4-0.7,1.7-0.3,3.3c0.4,1.7,1,2.1,1.7,2.6c0.7,0.5,1.6,1.2,1.9,2.6c0.2,1.1-0.5,2.1-1.6,2.3
					C123.1,88.8,123,88.9,122.9,88.9z"/>
			</g>
			<g>
				<path class="st4" d="M163.7,88.9c-0.1,0-0.3,0-0.4,0c-1.1-0.2-1.8-1.3-1.6-2.3c0.3-1.5,1.3-2.2,1.9-2.6c0.7-0.5,1.3-0.9,1.7-2.6
					c0.5-2.1,0.1-3.4-0.5-3.7c-0.3-0.2-0.7-0.1-1,0.2c-0.7,0.8-2,0.9-2.8,0.1c-0.8-0.7-0.9-2-0.1-2.8c1.5-1.6,3.9-2,5.8-1
					c0.9,0.5,3.8,2.5,2.5,8.2c-0.8,3.2-2.3,4.3-3.3,4.9c-0.1,0.1-0.3,0.2-0.3,0.2C165.4,88.2,164.6,88.9,163.7,88.9z"/>
			</g>
			<g>
				<path class="st4" d="M143.3,111.2c-10.9,0-20.3-10.1-22.4-24c-0.2-1.1,0.6-2.1,1.7-2.3c1.1-0.2,2.1,0.6,2.3,1.7
					c1.8,12,9.6,20.6,18.5,20.6s16.7-8.7,18.5-20.6c0.2-1.1,1.2-1.8,2.3-1.7c1.1,0.2,1.8,1.2,1.7,2.3
					C163.6,101.1,154.2,111.2,143.3,111.2z"/>
			</g>
			<g>
				<path class="st4" d="M138.9,86.7h-4.8c-1.1,0-2-0.9-2-2c0-1.1,0.9-2,2-2h4.8c1.1,0,2,0.9,2,2C140.9,85.8,140,86.7,138.9,86.7z"
					/>
			</g>
			<g>
				<path class="st4" d="M153.9,86.7h-4.8c-1.1,0-2-0.9-2-2c0-1.1,0.9-2,2-2h4.8c1.1,0,2,0.9,2,2C155.9,85.8,155,86.7,153.9,86.7z"
					/>
			</g>
			<g>
				<path class="st4" d="M143.3,103c-2.2,0-4.5-0.8-6.6-2.4c-0.9-0.7-1.1-1.9-0.4-2.8c0.7-0.9,1.9-1.1,2.8-0.4
					c2.8,2.1,5.6,2.1,8.3,0c0.9-0.7,2.1-0.5,2.8,0.4c0.7,0.9,0.5,2.1-0.4,2.8C147.8,102.2,145.5,103,143.3,103z"/>
			</g>
			<g>
				<path class="st4" d="M167.1,72c0,0-0.1,0-0.1,0c-1.1-0.1-1.9-1-1.9-2.1c0.2-3.7-2.1-9.7-5.5-12.2c-0.9-0.7-1.1-1.9-0.4-2.8
					c0.7-0.9,1.9-1.1,2.8-0.4c4.6,3.4,7.3,10.8,7.1,15.6C169,71.1,168.2,72,167.1,72z"/>
			</g>
			<g>
				<path class="st4" d="M118.7,73c-1,0-1.8-0.7-2-1.7c-0.9-6.2,1.4-13,6.3-18.6C129,45.9,137.7,42,146.9,42c1.1,0,2,0.9,2,2
					c0,1.1-0.9,2-2,2c-8.1,0-15.7,3.4-20.9,9.3c-4.1,4.7-6.1,10.4-5.4,15.4c0.2,1.1-0.6,2.1-1.7,2.3C118.9,73,118.8,73,118.7,73z"/>
			</g>
			<g>
				<path class="st4" d="M160.6,57.5c-0.3,0-0.5-0.1-0.8-0.2c-1-0.4-1.5-1.6-1.1-2.6l0.3-0.8c-1.8,0.2-3.7,0.9-4.5,1.2
					c-0.7,0.3-1.5,0.2-2.1-0.3c-0.6-0.5-0.8-1.3-0.6-2.1l0.7-2.2c-3.2,0.5-5.7,1.6-5.7,1.6c-1,0.5-2.2,0-2.6-1c-0.5-1,0-2.2,1-2.6
					c0.2-0.1,4.8-2.2,10.2-2.2c0.6,0,1.2,0.3,1.6,0.8c0.4,0.5,0.5,1.2,0.3,1.8l-0.4,1.4c1.7-0.4,3.8-0.6,5.7-0.2
					c0.6,0.1,1.1,0.5,1.3,1c0.3,0.5,0.3,1.1,0.1,1.7l-1.5,3.5C162.1,57,161.3,57.5,160.6,57.5z"/>
			</g>
		</g>
		<g>
			<path class="st4" d="M81.5,149.1c-12.3,0-22.9-9.2-24.7-21.3c-0.2-1.1,0.6-2.1,1.7-2.3c1.1-0.2,2.1,0.6,2.3,1.7
				c1.5,10.2,10.4,17.9,20.8,17.9c10.4,0,19.4-7.8,20.8-18.1c0.2-1.1,1.2-1.9,2.3-1.7c1.1,0.2,1.9,1.2,1.7,2.3
				C104.5,139.9,93.9,149.1,81.5,149.1z"/>
		</g>
		<g>
			<path class="st4" d="M143.5,152.8c-1.1,0-2-0.9-2-2v-24.6c0-1.1,0.9-2,2-2c1.1,0,2,0.9,2,2v24.6
				C145.5,151.9,144.6,152.8,143.5,152.8z"/>
		</g>
	</g>
</g>
<g class="st0">
	<g class="st3">
		<path class="st5" d="M99,58.6c0,0,38.7,5.2,43.2-12.8l2.7,1.3l-5.5,17.5l-38,0.3L99,58.6z"/>
		<polygon class="st5" points="170,133.1 150.9,130.6 155.1,150.5 159.7,144.5 169.4,151.8 174.8,146.1 165.6,138.2 		"/>
		<circle class="st6" cx="85.6" cy="143.6" r="22.8"/>
	</g>
	<g class="st3">
		<g>
			<path class="st4" d="M164.5,78.7c-5.1,0-9.3-4.2-9.3-9.3c0-5.1,4.2-9.3,9.3-9.3c5.1,0,9.3,4.2,9.3,9.3
				C173.8,74.5,169.6,78.7,164.5,78.7z M164.5,64.1c-2.9,0-5.3,2.4-5.3,5.3c0,2.9,2.4,5.3,5.3,5.3c2.9,0,5.3-2.4,5.3-5.3
				C169.8,66.5,167.4,64.1,164.5,64.1z"/>
		</g>
		<g>
			<path class="st4" d="M100.6,66.6c-0.6,0-1.3-0.3-1.7-0.9c-3.5-5.3-5.9-15.7-6.5-18.9c-0.1-0.7,0.2-1.5,0.8-1.9
				c2.5-1.9,5.4-3.9,8.7-5c3.3-1,5.3,0.8,6.6,2c1.1,1,1.8,1.6,2.9,1.6c1.4,0,1.9-0.5,2.9-1.4c1.1-1,2.7-2.4,5.6-2.4
				c2.9,0,4.4,1.4,5.6,2.4c1,0.9,1.5,1.4,2.9,1.4c1.4,0,1.9-0.5,2.9-1.4c1.1-1,2.7-2.4,5.6-2.4c4.6,0,8.4,5.1,10,7.2l0.1,0.2
				c0.4,0.5,0.5,1.3,0.3,1.9l-2.4,6.3c-1.4,4.2-2.5,7.2-3.7,9.3c-0.5,1-1.8,1.3-2.7,0.8c-1-0.5-1.3-1.8-0.8-2.7c1-1.8,2-4.7,3.4-8.7
				l0.1-0.3l1.9-5.1c-1.3-1.7-4-4.9-6.2-4.9c-1.4,0-1.9,0.5-2.9,1.4c-1.1,1-2.7,2.4-5.6,2.4c-2.9,0-4.4-1.4-5.6-2.4
				c-1-0.9-1.5-1.4-2.9-1.4c-1.4,0-1.9,0.5-2.9,1.4c-1.1,1-2.7,2.4-5.6,2.4c-2.8,0-4.4-1.5-5.6-2.7c-1.3-1.2-1.7-1.5-2.7-1.1
				c-2.4,0.8-4.9,2.4-6.5,3.6c0.8,3.6,2.8,12,5.6,16.2c0.6,0.9,0.4,2.2-0.6,2.8C101.4,66.5,101,66.6,100.6,66.6z"/>
		</g>
		<g>
			<path class="st4" d="M163.9,120.3c-1.1,0-2-0.9-2-2c0-1.9-1.5-6.4-2.4-8.9c-3-6.1-7.6-11.5-13.2-15.6c-0.1-0.1-0.1-0.1-0.2-0.2
				c-0.4-0.4-0.9-0.8-1.3-1.2c-2.7-2.4-6-5.4-7.3-11.4c-0.3-1.3-0.7-3.3-1.3-6c-0.2-1.1,0.4-2.1,1.5-2.4c1.1-0.2,2.2,0.4,2.4,1.5
				c0.6,2.8,1.1,4.8,1.4,6.1c1,4.8,3.6,7.1,6,9.3c0.5,0.4,0.9,0.8,1.4,1.2c6.1,4.5,11.1,10.4,14.3,17.1c0,0.1,0,0.1,0.1,0.2
				c0.3,0.7,2.7,7.1,2.7,10.4C165.9,119.4,165,120.3,163.9,120.3z"/>
		</g>
		<g>
			<path class="st4" d="M119.6,173.8c-2,0-4-0.1-5.9-0.4c-1.1-0.1-1.9-1.1-1.8-2.2c0.1-1.1,1.1-1.9,2.2-1.8c1.8,0.2,3.6,0.3,5.5,0.3
				c11.8,0,22.8-4.4,31.2-12.4c0.8-0.8,2.1-0.7,2.8,0.1c0.8,0.8,0.7,2.1-0.1,2.8C144.5,169,132.4,173.8,119.6,173.8z"/>
		</g>
		<g>
			<path class="st4" d="M89,96.4c-0.6,0-1.1-0.2-1.5-0.7c-0.7-0.8-0.6-2.1,0.2-2.8l0.4-0.4c0.6-0.5,1.2-1,1.7-1.5
				c4.3-4.2,8.2-9.7,9.1-12.9l0.7-3.9c0.2-1.1,1.2-1.8,2.3-1.6c1.1,0.2,1.8,1.2,1.6,2.3l-0.7,4c0,0,0,0.1,0,0.1
				c-1,3.9-5.2,10-10.2,14.8c-0.6,0.6-1.3,1.2-1.9,1.7l-0.4,0.4C89.9,96.2,89.5,96.4,89,96.4z"/>
		</g>
		<g>
			<path class="st4" d="M137.4,76.5h-34.5c-3.5,0-6.3-2.8-6.3-6.3v-1c0-3.5,2.8-6.3,6.3-6.3h34.5c3.5,0,6.3,2.8,6.3,6.3v1
				C143.7,73.7,140.8,76.5,137.4,76.5z M102.8,66.9c-1.3,0-2.3,1-2.3,2.3v1c0,1.3,1,2.3,2.3,2.3h34.5c1.3,0,2.3-1,2.3-2.3v-1
				c0-1.3-1-2.3-2.3-2.3H102.8z"/>
		</g>
		<g>
			<path class="st4" d="M112.1,63.4c-0.9,0-1.7-0.6-1.9-1.6l-1.2-5.2c-0.2-1.1,0.4-2.1,1.5-2.4c1.1-0.3,2.2,0.4,2.4,1.5l1.2,5.2
				c0.2,1.1-0.4,2.1-1.5,2.4C112.4,63.4,112.3,63.4,112.1,63.4z"/>
		</g>
		<g>
			<path class="st4" d="M126.4,65c-0.2,0-0.4,0-0.6-0.1c-1-0.3-1.6-1.5-1.3-2.5l1.8-5.4c0.3-1,1.5-1.6,2.5-1.3
				c1,0.3,1.6,1.5,1.3,2.5l-1.8,5.4C128,64.5,127.2,65,126.4,65z"/>
		</g>
		<g>
			<path class="st4" d="M82.3,168.3c-15.9,0-28.8-12.9-28.8-28.8c0-15.9,12.9-28.8,28.8-28.8c15.9,0,28.8,12.9,28.8,28.8
				C111.1,155.4,98.2,168.3,82.3,168.3z M82.3,114.8c-13.7,0-24.8,11.1-24.8,24.8c0,13.7,11.1,24.8,24.8,24.8
				c13.7,0,24.8-11.1,24.8-24.8C107.1,125.9,96,114.8,82.3,114.8z"/>
		</g>
		<g>
			<path class="st4" d="M87.9,133.4c-0.9-1.5-3.4-2.6-5.8-2.6c-2.9,0-5.5,0.8-5.5,3.2c0,2.3,2.7,2.7,5.6,3c5,0.6,10.4,1.5,10.4,7.6
				c0,4.6-3.9,7.3-8.2,7.6v3.4h-4.4v-3.3c-3.9-0.3-7.4-2.1-9.1-5.9l4.1-1.7c0.9,2.2,4,3.6,6.9,3.6c3.1,0,6-1.1,6-3.8
				c0-2.3-2.9-3.1-6.1-3.5c-4.9-0.6-9.7-1.4-9.7-7.1c0-4.5,4-6.6,8-7.1v-3h4.4v3c2.9,0.4,5.6,1.5,7.2,4.7L87.9,133.4z"/>
		</g>
		<g>
			<path class="st4" d="M85.9,178.8c-1,0-1.9-0.8-2-1.8c-0.1-1.1,0.7-2.1,1.8-2.2c0.9-0.1,1.9-0.2,2.8-0.4c1.1-0.2,2.1,0.5,2.3,1.6
				c0.2,1.1-0.5,2.1-1.6,2.3c-1,0.2-2.1,0.3-3.1,0.4C86,178.8,86,178.8,85.9,178.8z M75.9,178.4c-0.1,0-0.2,0-0.3,0
				c-1-0.2-2.1-0.4-3.1-0.7c-1.1-0.3-1.7-1.4-1.4-2.4c0.3-1.1,1.4-1.7,2.4-1.4c0.9,0.2,1.9,0.4,2.8,0.6c1.1,0.2,1.8,1.2,1.6,2.3
				C77.7,177.7,76.9,178.4,75.9,178.4z M98.4,175.3c-0.7,0-1.5-0.4-1.8-1.1c-0.5-1-0.1-2.2,0.9-2.7c0.9-0.4,1.7-0.9,2.5-1.3
				c1-0.6,2.2-0.2,2.7,0.7c0.6,1,0.2,2.2-0.7,2.7c-0.9,0.5-1.9,1-2.8,1.5C99,175.2,98.7,175.3,98.4,175.3z M63.7,173.9
				c-0.3,0-0.7-0.1-1-0.3c-0.9-0.5-1.8-1.1-2.7-1.7c-0.9-0.6-1.1-1.9-0.5-2.8c0.6-0.9,1.9-1.1,2.8-0.5c0.8,0.5,1.6,1.1,2.4,1.5
				c1,0.6,1.3,1.8,0.7,2.7C65.1,173.6,64.4,173.9,63.7,173.9z M109,167.8c-0.5,0-1-0.2-1.4-0.6c-0.8-0.8-0.8-2,0-2.8
				c0.7-0.7,1.3-1.4,1.9-2.1c0.7-0.8,2-1,2.8-0.2c0.8,0.7,1,2,0.2,2.8c-0.7,0.8-1.4,1.6-2.1,2.3C110,167.6,109.5,167.8,109,167.8z
				 M53.7,165.6c-0.6,0-1.1-0.2-1.5-0.7c-0.7-0.8-1.3-1.7-1.9-2.5c-0.6-0.9-0.4-2.1,0.5-2.8s2.1-0.4,2.8,0.5
				c0.5,0.8,1.1,1.5,1.7,2.3c0.7,0.8,0.6,2.1-0.2,2.8C54.7,165.5,54.2,165.6,53.7,165.6z M116.4,157.1c-0.3,0-0.6-0.1-0.8-0.2
				c-1-0.5-1.4-1.6-1-2.7c0.4-0.9,0.8-1.8,1.1-2.6c0.4-1,1.5-1.6,2.6-1.2c1,0.4,1.6,1.5,1.2,2.6c-0.4,1-0.8,2-1.2,2.9
				C117.8,156.7,117.1,157.1,116.4,157.1z M47.2,154.4c-0.8,0-1.6-0.5-1.9-1.3c-0.4-1-0.7-2-1-3c-0.3-1.1,0.3-2.2,1.4-2.5
				c1.1-0.3,2.2,0.3,2.5,1.4c0.3,0.9,0.5,1.8,0.9,2.7c0.4,1-0.2,2.2-1.2,2.6C47.7,154.4,47.5,154.4,47.2,154.4z M119.6,144.5
				c-0.1,0-0.1,0-0.2,0c-1.1-0.1-1.9-1.1-1.8-2.2c0.1-0.9,0.1-1.9,0.1-2.8l0-0.2c0-1.1,0.9-2,2-2c1.1,0,2,0.9,2,2l0,0.1
				c0,1.1,0,2.2-0.1,3.2C121.5,143.7,120.7,144.5,119.6,144.5z M45,141.6c-1.1,0-2-0.9-2-2v-0.1c0-1,0-2.1,0.1-3.1
				c0.1-1.1,1.1-1.9,2.1-1.8c1.1,0.1,1.9,1,1.8,2.1c-0.1,0.9-0.1,1.8-0.1,2.8C47,140.6,46.1,141.6,45,141.6z M118.4,131.5
				c-0.9,0-1.7-0.6-1.9-1.5c-0.3-0.9-0.5-1.8-0.9-2.7c-0.4-1,0.1-2.2,1.2-2.6c1-0.4,2.2,0.1,2.6,1.2c0.4,1,0.7,2,1,3
				c0.3,1.1-0.3,2.2-1.4,2.5C118.7,131.4,118.5,131.5,118.4,131.5z M47.2,128.8c-0.2,0-0.5,0-0.7-0.1c-1-0.4-1.6-1.5-1.2-2.6
				c0.4-1,0.8-2,1.2-2.9c0.5-1,1.6-1.4,2.6-1c1,0.5,1.4,1.6,1,2.6c-0.4,0.9-0.8,1.8-1.1,2.6C48.8,128.3,48,128.8,47.2,128.8z
				 M112.8,119.8c-0.6,0-1.2-0.3-1.6-0.8c-0.5-0.8-1.1-1.5-1.8-2.2c-0.7-0.8-0.6-2.1,0.2-2.8c0.8-0.7,2.1-0.6,2.8,0.2
				c0.7,0.8,1.3,1.6,1.9,2.5c0.6,0.9,0.4,2.1-0.5,2.8C113.6,119.6,113.2,119.8,112.8,119.8z M53.6,117.6c-0.5,0-0.9-0.2-1.3-0.5
				c-0.8-0.7-1-2-0.3-2.8c0.7-0.8,1.4-1.6,2.1-2.3c0.8-0.8,2-0.8,2.8,0c0.8,0.8,0.8,2,0,2.8c-0.7,0.7-1.3,1.4-1.9,2.1
				C54.8,117.3,54.2,117.6,53.6,117.6z M103.5,110.7c-0.4,0-0.8-0.1-1.1-0.4c-0.8-0.5-1.6-1-2.4-1.5c-1-0.5-1.3-1.8-0.7-2.7
				c0.5-1,1.8-1.3,2.7-0.7c0.9,0.5,1.8,1.1,2.7,1.7c0.9,0.6,1.1,1.9,0.5,2.8C104.7,110.4,104.1,110.7,103.5,110.7z M63.6,109.2
				c-0.7,0-1.4-0.4-1.7-1c-0.6-1-0.2-2.2,0.7-2.7c0.9-0.5,1.9-1,2.8-1.5c1-0.5,2.2-0.1,2.7,0.9c0.5,1,0.1,2.2-0.9,2.7
				c-0.9,0.4-1.7,0.9-2.5,1.3C64.3,109.1,63.9,109.2,63.6,109.2z M91.7,105.3c-0.2,0-0.3,0-0.5-0.1c-0.9-0.2-1.8-0.4-2.8-0.6
				c-1.1-0.2-1.8-1.2-1.6-2.3c0.2-1.1,1.2-1.8,2.3-1.6c1,0.2,2.1,0.4,3.1,0.7c1.1,0.3,1.7,1.4,1.4,2.4
				C93.4,104.7,92.6,105.3,91.7,105.3z M75.7,104.7c-1,0-1.8-0.7-2-1.6c-0.2-1.1,0.5-2.1,1.6-2.3c1-0.2,2.1-0.3,3.1-0.4
				c1.1-0.1,2.1,0.7,2.2,1.8c0.1,1.1-0.7,2.1-1.8,2.2c-0.9,0.1-1.9,0.2-2.8,0.4C76,104.7,75.9,104.7,75.7,104.7z"/>
		</g>
		<g>
			<path class="st4" d="M62.6,98.7c-0.6,0-1.2-0.3-1.6-0.8c-1.8-2.5-2.8-5.4-2.8-8.5c0-7.8,6.3-14.1,14.1-14.1c5,0,9.6,2.7,12.2,7
				c0.6,1,0.2,2.2-0.7,2.7c-1,0.6-2.2,0.2-2.7-0.7c-1.8-3.1-5.2-5-8.7-5c-5.6,0-10.1,4.5-10.1,10.1c0,2.2,0.7,4.3,2,6.1
				c0.7,0.9,0.5,2.1-0.4,2.8C63.5,98.6,63.1,98.7,62.6,98.7z"/>
		</g>
		<g>
			<g>
				<path class="st4" d="M170,155.7c-0.5,0-0.9-0.2-1.3-0.5l-8.9-7.6l-3.9,4.6c-0.5,0.6-1.3,0.8-2,0.6c-0.7-0.2-1.3-0.8-1.4-1.6
					l-3.7-20.3c-0.1-0.6,0.1-1.2,0.4-1.7c0.4-0.5,1-0.7,1.6-0.7l20.6,0.5c0.8,0,1.5,0.5,1.8,1.2c0.3,0.7,0.2,1.5-0.3,2.1l-3.7,4.3
					l8.9,7.6c0.8,0.7,0.9,2,0.2,2.8l-6.7,7.8c-0.3,0.4-0.8,0.7-1.4,0.7C170.1,155.7,170.1,155.7,170,155.7z M159.6,142.8
					c0.5,0,0.9,0.2,1.3,0.5l8.9,7.6l4.1-4.8l-8.9-7.6c-0.4-0.3-0.7-0.8-0.7-1.4c0-0.5,0.1-1.1,0.5-1.5l2.3-2.6l-14-0.4l2.5,13.7
					l2.5-2.9C158.4,143,159,142.8,159.6,142.8z"/>
			</g>
		</g>
		<g>
			<path class="st4" d="M141.7,134.9c-0.2,0-0.5,0-0.7-0.1c-2.8-1.1-4.9-3.6-5.5-6.5c-1-4.9,2.1-9.7,7-10.8c3.6-0.8,7.2,0.7,9.3,3.7
				c0.6,0.9,0.4,2.2-0.5,2.8c-0.9,0.6-2.2,0.4-2.8-0.5c-1.2-1.7-3.2-2.5-5.2-2.1c-2.7,0.6-4.5,3.3-3.9,6c0.4,1.7,1.5,3,3.1,3.7
				c1,0.4,1.5,1.6,1.1,2.6C143.2,134.4,142.5,134.9,141.7,134.9z"/>
		</g>
		<g>
			<path class="st4" d="M133.5,140c-0.5,0-1-0.2-1.4-0.6c-2.3-2.4-3.9-5.4-4.6-8.7c-1-4.6-0.1-9.4,2.5-13.4c2.6-4,6.6-6.7,11.2-7.7
				c4.9-1.1,10.1,0,14.2,3c0.9,0.6,1.1,1.9,0.4,2.8c-0.6,0.9-1.9,1.1-2.8,0.4c-3.2-2.3-7.2-3.2-11-2.3c-3.6,0.8-6.7,2.9-8.7,6
				c-2,3.1-2.7,6.8-1.9,10.4c0.5,2.5,1.8,4.9,3.6,6.7c0.8,0.8,0.8,2.1,0,2.8C134.5,139.8,134,140,133.5,140z"/>
		</g>
	</g>
</g>
<g class="st0">
	<g class="st3">
		<path class="st5" d="M74.6,67.7c-10.5,0-19,8.5-19,19s8.5,19,19,19s19-8.5,19-19S85.1,67.7,74.6,67.7z"/>
		<path class="st6" d="M149.5,99.3c0.2,0.6,0.3,1.3,0.3,2v12.2c0,5.2-3.1,6.9-6.9,6.9h-2c-0.7,0-1.3-0.1-2-0.3c0.8,2.9,3.5,5,6.6,5
			h2c3.8,0,6.9-3.1,6.9-6.9v-12.2C154.5,102.8,152.4,100.1,149.5,99.3z"/>
		<g>
			<path class="st6" d="M143,168.6c12.7,0,23.3-10.9,24.4-25.2l0.1-41.7l8.2,5l-0.1,48.4c-1.3,14.7-13.5,25.9-28.2,25.9l0,0
				c-14.9,0-27.3-11.6-28.3-26.5l0-7.4C121.5,159.5,131.4,168.6,143,168.6z"/>
		</g>
		<polygon class="st6" points="102.7,99.4 85.6,95.1 84.9,112.7 91.8,107.6 99.4,116.6 104.5,112.7 97.4,103.3 		"/>
	</g>
	<g class="st3">
		<path class="st4" d="M43.5,172.7c0.6,1,1.9,1.4,2.9,0.8c1-0.6,1.4-1.9,0.8-2.9c-0.6-1-1.9-1.4-2.9-0.8
			C43.3,170.4,42.9,171.7,43.5,172.7z"/>
		<g>
			<g>
				<path class="st4" d="M98.4,120.9c-0.1,0-0.2,0-0.3,0c-0.5-0.1-1-0.4-1.3-0.8l-6.8-9l-4.6,3.5c-0.6,0.5-1.4,0.5-2.1,0.2
					c-0.7-0.4-1.1-1.1-1.1-1.8l0.8-20c0-0.6,0.3-1.2,0.8-1.5c0.5-0.4,1.1-0.5,1.7-0.3l19.4,4.9c0.7,0.2,1.3,0.8,1.5,1.5
					c0.2,0.8-0.1,1.5-0.8,2l-4.3,3.3l6.8,9c0.7,0.9,0.5,2.1-0.4,2.8l-8,6C99.2,120.7,98.8,120.9,98.4,120.9z M90.4,106.2
					c0.1,0,0.2,0,0.3,0c0.5,0.1,1,0.4,1.3,0.8l6.8,9l4.8-3.6l-6.8-9c-0.7-0.9-0.5-2.1,0.4-2.8l2.6-1.9l-12.9-3.2l-0.5,13.3l2.9-2.2
					C89.5,106.3,89.9,106.2,90.4,106.2z"/>
			</g>
		</g>
		<g>
			<g>
				<path class="st4" d="M147.2,182.8c-1.1,0-2-0.9-2-2c0-1.1,0.9-2,2-2c19.2,0,34.4-13.9,37.3-33.8l-10.2-18.1
					c-0.5-1-0.2-2.2,0.8-2.7c1-0.5,2.2-0.2,2.7,0.8l10.6,18.6c0.2,0.4,0.3,0.8,0.2,1.2C185.7,167.1,168.7,182.8,147.2,182.8z"/>
			</g>
			<g>
				<path class="st4" d="M147.4,182.7c-15.9,0-28.9-11.9-30.2-27.7c0-0.1,0-0.1,0-0.2l-0.1-48.4c0-0.7,0.4-1.4,1-1.7l19.6-11.8
					c0.6-0.4,1.4-0.4,2,0c0.6,0.4,1,1,1,1.7v21.7c0,1.1-0.9,2-2,2c-1.1,0-2-0.9-2-2V98l-15.6,9.4l0.1,47.2c1.2,13.7,12.5,24,26.2,24
					c13.8,0,25.4-10.8,26.3-24.6l0-46.6l-17.3-9.7v17.5c0,1.1-0.9,2-2,2c-1.1,0-2-0.9-2-2V94.4c0-0.7,0.4-1.4,1-1.7
					c0.6-0.4,1.4-0.4,2,0l21.3,11.9c0.6,0.4,1,1,1,1.7l0,47.8c0,0,0,0.1,0,0.1C176.7,170.2,163.4,182.7,147.4,182.7z"/>
			</g>
			<g>
				<path class="st4" d="M147.6,127h-2c-4.9,0-8.9-4-8.9-8.9v-12.2c0-4.9,4-8.9,8.9-8.9h2c4.9,0,8.9,4,8.9,8.9v12.2
					C156.5,123,152.5,127,147.6,127z M145.6,101c-2.7,0-4.9,2.2-4.9,4.9v12.2c0,2.7,2.2,4.9,4.9,4.9h2c2.7,0,4.9-2.2,4.9-4.9v-12.2
					c0-2.7-2.2-4.9-4.9-4.9H145.6z"/>
			</g>
			<g>
				<path class="st4" d="M146.4,136.9c-1.1,0-2-0.9-2-2v-8.5c0-1.1,0.9-2,2-2c1.1,0,2,0.9,2,2v8.5
					C148.4,136,147.5,136.9,146.4,136.9z"/>
			</g>
		</g>
		<g>
			<g>
				<path class="st4" d="M66.2,172.1c-1.1,0-2-0.9-2-2v-7.3c0-1.1,0.9-2,2-2h47.3c1.1,0,2,0.9,2,2c0,1.1-0.9,2-2,2H68.2v5.3
					C68.2,171.2,67.3,172.1,66.2,172.1z"/>
			</g>
			<g>
				<path class="st4" d="M82.3,164.5c-0.4,0-0.8-0.1-1.1-0.3c-0.9-0.6-1.2-1.9-0.6-2.8c2-3,3.1-6.5,3.1-10.2v-9.6c0-1.1,0.9-2,2-2
					c1.1,0,2,0.9,2,2v9.6c0,4.4-1.3,8.7-3.7,12.4C83.5,164.2,82.9,164.5,82.3,164.5z"/>
			</g>
			<g>
				<path class="st4" d="M105.2,142.9H37.5c-2.4,0-4.4-2-4.4-4.4V40c0-2.4,2-4.4,4.4-4.4H165c2.4,0,4.4,2,4.4,4.4v54.7
					c0,1.1-0.9,2-2,2c-1.1,0-2-0.9-2-2V40c0-0.2-0.2-0.4-0.4-0.4H37.5c-0.2,0-0.4,0.2-0.4,0.4v98.5c0,0.2,0.2,0.4,0.4,0.4h67.7
					c1.1,0,2,0.9,2,2C107.2,142,106.3,142.9,105.2,142.9z"/>
			</g>
			<g>
				<path class="st4" d="M103.5,132.2H44.8c-1.1,0-2-0.9-2-2V48.1c0-1.1,0.9-2,2-2h112.5c1.1,0,2,0.9,2,2v39.6c0,1.1-0.9,2-2,2
					c-1.1,0-2-0.9-2-2V50.1H46.8v78.1h56.7c1.1,0,2,0.9,2,2C105.5,131.3,104.6,132.2,103.5,132.2z"/>
			</g>
		</g>
		<g>
			<path class="st4" d="M117.3,173.7H52.2c-1.1,0-2-0.9-2-2c0-1.1,0.9-2,2-2h65.1c1.1,0,2,0.9,2,2
				C119.3,172.8,118.4,173.7,117.3,173.7z"/>
		</g>
		<g>
			<path class="st4" d="M125.7,63.4h-3c-1.1,0-2-0.9-2-2s0.9-2,2-2h3c1.1,0,2,0.9,2,2S126.8,63.4,125.7,63.4z M112.7,63.4h-3
				c-1.1,0-2-0.9-2-2s0.9-2,2-2h3c1.1,0,2,0.9,2,2S113.8,63.4,112.7,63.4z M99.7,63.4h-3c-1.1,0-2-0.9-2-2s0.9-2,2-2h3
				c1.1,0,2,0.9,2,2S100.8,63.4,99.7,63.4z M86.7,63.4h-3c-1.1,0-2-0.9-2-2s0.9-2,2-2h3c1.1,0,2,0.9,2,2S87.8,63.4,86.7,63.4z
				 M73.7,63.4h-3c-1.1,0-2-0.9-2-2s0.9-2,2-2h3c1.1,0,2,0.9,2,2S74.8,63.4,73.7,63.4z M60.7,63.4h-3c-1.1,0-2-0.9-2-2s0.9-2,2-2h3
				c1.1,0,2,0.9,2,2S61.8,63.4,60.7,63.4z"/>
		</g>
		<g>
			<path class="st4" d="M145.8,99.4c-1.1,0-2-0.9-2-2V67.5c0-2.2-1.8-4-4-4h-12.8c-1.1,0-2-0.9-2-2c0-1.1,0.9-2,2-2h12.8
				c4.4,0,8,3.6,8,8v29.8C147.8,98.5,146.9,99.4,145.8,99.4z"/>
		</g>
		<g>
			<path class="st4" d="M133.3,78.1h-27.2c-1.1,0-2-0.9-2-2c0-1.1,0.9-2,2-2h27.2c1.1,0,2,0.9,2,2C135.3,77.3,134.4,78.1,133.3,78.1
				z"/>
		</g>
		<g>
			<path class="st4" d="M121.4,89.3h-15.4c-1.1,0-2-0.9-2-2s0.9-2,2-2h15.4c1.1,0,2,0.9,2,2S122.5,89.3,121.4,89.3z"/>
		</g>
		<g>
			<path class="st4" d="M119.2,156.7c-0.8,0-1.6-0.5-1.9-1.4l-10.6-32.7c-0.3-0.8,0-1.7,0.7-2.2l10.5-7.5c0.9-0.6,2.1-0.4,2.8,0.5
				c0.6,0.9,0.4,2.1-0.5,2.8l-9.3,6.6l10.2,31.3c0.3,1-0.2,2.2-1.3,2.5C119.6,156.7,119.4,156.7,119.2,156.7z"/>
		</g>
	</g>
	<text transform="matrix(1 0 0 1 65.1981 90.001)" class="st8 st9 st10">ERC</text>
</g>
</svg>
