<?xml version="1.0" encoding="utf-8"?>
<!-- Generator: Adobe Illustrator 22.0.0, SVG Export Plug-In . SVG Version: 6.00 Build 0)  -->
<svg version="1.1" id="Layer_1" xmlns="http://www.w3.org/2000/svg" xmlns:xlink="http://www.w3.org/1999/xlink" x="0px" y="0px"
	 viewBox="0 0 100 96" style="enable-background:new 0 0 100 96;" xml:space="preserve">
<style type="text/css">
	.st0{fill:#FFFFFF;}
</style>
<path class="st0" d="M1.2,58.9l5.1-11.5c0.9-1.9,1.3-4,1.3-6.2c0-17.1,13.7-31,30.8-31.2l-0.7,0.7c-2.8,2.8-3.6,7.1-2.1,10.7
	c-3.7,1.5-6.1,5.1-6.1,9.1v3.1c0,4,2.4,7.6,6.1,9.1c-1.6,3.7-0.7,7.9,2.1,10.7l2.2,2.2c1.8,1.8,4.3,2.9,6.9,2.9
	c1.3,0,2.6-0.3,3.8-0.8c1.5,3.7,5.1,6.1,9.1,6.1h1.9l4.5,15.6c0.5,1.7-0.5,3.4-2.1,3.8c0,0,0,0,0,0l-32.3,9.2
	c-1.7,0.5-3.4-0.5-3.8-2.1c0,0,0,0,0,0l-2.5-8.8h-12c-3.1,0-5.6-2.5-5.6-5.6l0,0V64.1l-4.8-1.6c-1.4-0.5-2.2-2-1.7-3.4
	C1.2,59,1.2,59,1.2,58.9z M98,64.5L95.9,66c0.2,1.6,0,3.3-0.5,4.9l1.8,1.9c0.8,0.8,0.8,2,0.2,2.8l-1.4,2c-0.6,0.9-1.8,1.2-2.8,0.7
	l-2.4-1.1c-1.3,1-2.8,1.6-4.4,2l-0.7,2.5c-0.3,1-1.3,1.7-2.3,1.6L81,83c-1.1-0.1-1.9-0.9-2-2l-0.2-2.6c-1.5-0.7-2.9-1.6-4-2.8
	l-2.5,0.7c-1,0.3-2.1-0.3-2.6-1.2l-1-2.2c-0.4-1-0.1-2.1,0.8-2.7l2.2-1.5c-0.2-1.6,0-3.3,0.5-4.9l-1.8-1.9c-0.7-0.8-0.8-2-0.2-2.8
	l1.4-2c0.6-0.9,1.8-1.2,2.8-0.7l2.4,1.1c1.3-1,2.8-1.6,4.4-2l0.7-2.5c0.3-1,1.3-1.7,2.3-1.6l2.4,0.2c1.1,0.1,1.9,0.9,2,2l0.2,2.6
	c1.5,0.7,2.9,1.6,4,2.8l2.5-0.7c1-0.2,2.1,0.3,2.5,1.3l1,2.2C99.2,62.8,98.9,64,98,64.5z M88.3,67.7c0.3-2.5-1.6-4.8-4.1-5
	s-4.8,1.6-5,4.1s1.6,4.8,4.1,5c0,0,0,0,0,0C85.8,72.1,88.1,70.3,88.3,67.7C88.3,67.7,88.3,67.7,88.3,67.7L88.3,67.7z M42.5,44.9
	l2.5-3.3c-0.8-1.4-1.5-3-1.9-4.6L39,36.4c-1.4-0.2-2.4-1.4-2.4-2.7v-3.1c0-1.4,1-2.6,2.4-2.7l4.2-0.6c0.4-1.6,1-3.1,1.8-4.6
	l-2.6-3.4c-0.8-1.1-0.7-2.6,0.2-3.6l2.2-2.2c1-1,2.5-1.1,3.6-0.2l3.4,2.6c1.4-0.8,3-1.5,4.6-1.9L57,9.7c0.2-1.4,1.4-2.4,2.7-2.4h3.1
	c1.4,0,2.6,1,2.7,2.4l0.6,4.2c1.6,0.4,3.1,1.1,4.6,1.9l3.3-2.6c1.1-0.8,2.6-0.7,3.6,0.2l2.2,2.2c1,1,1.1,2.5,0.2,3.6l-2.6,3.4
	c0.8,1.4,1.5,3,1.9,4.6l4.2,0.6C85,28,86,29.2,86,30.5v3.1c0,1.4-1,2.6-2.4,2.7l-4.2,0.6c-0.4,1.6-1.1,3.1-1.9,4.6l2.6,3.3
	c0.8,1.1,0.7,2.6-0.2,3.6l-2.2,2.2c-1,1-2.5,1.1-3.6,0.2l-3.4-2.6c-1.4,0.8-3,1.5-4.6,1.9l-0.6,4.2c-0.2,1.4-1.4,2.4-2.7,2.4h-3.1
	c-1.4,0-2.5-1-2.7-2.4l-0.6-4.2c-1.6-0.4-3.1-1.1-4.6-1.9l-3.3,2.6c-1.1,0.8-2.6,0.7-3.6-0.2l-2.2-2.2C41.8,47.5,41.7,46,42.5,44.9z
	 M55,32.1c0,3.5,2.8,6.3,6.3,6.3s6.3-2.8,6.3-6.3l0,0c0-3.5-2.8-6.3-6.3-6.3C57.8,25.8,55,28.6,55,32.1z"/>
</svg>
