<svg width="20" height="13" viewBox="0 0 20 13" fill="none" xmlns="http://www.w3.org/2000/svg">
<path d="M1.5 0C1.30351 0 1.11699 0.0409448 0.945312 0.1085L9.42969 7.46326C9.79644 7.7811 10.1871 7.78132 10.5547 7.46326L19.0547 0.1085C18.883 0.0409448 18.6965 0 18.5 0H1.5ZM0.015625 1.27873C0.0061675 1.34654 0 1.41754 0 1.488V11.408C0 12.2323 0.669015 12.896 1.5 12.896H18.5C19.331 12.896 20 12.2323 20 11.408V1.488C20 1.41754 19.9938 1.34654 19.9844 1.27873L11.5391 8.587C10.6579 9.34938 9.32639 9.35059 8.44531 8.587L0.015625 1.27873Z" fill="#CAD0D5"/>
</svg>
