<svg width="27" height="34" viewBox="0 0 27 34" fill="none" xmlns="http://www.w3.org/2000/svg">
<path fill-rule="evenodd" clip-rule="evenodd" d="M15.7539 7.45078C15.7539 9.45625 17.4048 11.0898 19.4465 11.0898V11.0832H26.9933C27 11.0832 27 11.0898 27 11.0898V29.1391C27 31.8219 24.7899 34 22.0676 34H4.93237C2.21013 34 0 31.8219 0 29.1391V4.86094C0 2.17812 2.21013 0 4.93237 0H15.7472C15.7539 0 15.7539 0.00664062 15.7539 0.00664062V7.45078ZM17.9978 6.34841V0.650754L26.3329 8.86521H20.5515C19.1432 8.86521 17.9978 7.74294 17.9978 6.34841ZM16.8188 17.4327C17.1379 17.6454 17.3409 17.9598 17.3989 18.3019C17.4666 18.6348 17.3893 19.0046 17.1669 19.3005L14.1597 23.4152C13.7149 24.0255 12.835 24.1734 12.1968 23.7481C11.8777 23.5354 11.6843 23.221 11.6166 22.8789C11.549 22.5368 11.6263 22.1762 11.8487 21.871C11.9938 21.6676 11.9454 21.3902 11.7327 21.2515C11.5296 21.1128 11.2299 21.1591 11.0848 21.3625L9.56674 23.4245C9.12195 24.0347 8.24203 24.1827 7.60385 23.7573C7.28476 23.5447 7.09138 23.2303 7.02369 22.8882C6.956 22.546 7.03336 22.1854 7.25575 21.8803L12.5836 14.5755C13.0284 13.9653 13.9083 13.8173 14.5465 14.2427C14.8656 14.4553 15.0686 14.7697 15.1266 15.1118C15.1943 15.454 15.117 15.8146 14.8946 16.1197L12.1581 19.8923C12.0131 20.0957 12.0614 20.3731 12.2742 20.521C12.4869 20.6597 12.777 20.6135 12.922 20.4101L14.8559 17.7656C15.3007 17.1553 16.1806 17.0074 16.8188 17.4327ZM16.345 22.2409C16.345 21.2793 17.1572 20.4933 18.1725 20.4933C19.1878 20.4933 20 21.2793 20 22.2409C20 23.2025 19.1878 23.9885 18.1725 23.9885C17.1669 23.9885 16.345 23.2118 16.345 22.2409Z" fill="#F53743"/>
</svg>
