<svg width="34" height="34" viewBox="0 0 34 34" fill="none" xmlns="http://www.w3.org/2000/svg">
<path d="M13.7578 23.9009C12.7162 23.9245 11.719 23.3828 11.0985 22.488C11.3644 22.3232 11.586 22.0641 11.6747 21.758C11.9406 21.9464 12.2508 22.1112 12.5611 22.229C13.3367 22.5115 14.1788 22.5115 14.9544 22.229C15.2647 22.1112 15.5749 21.9464 15.8409 21.758C15.9517 22.0641 16.1511 22.3467 16.417 22.488C15.7965 23.3828 14.7993 23.9245 13.7578 23.9009Z" fill="#F53743"/>
<path d="M16.8603 18.1079C16.7051 19.2383 15.863 20.6276 14.5777 21.0986C14.0459 21.3106 13.4697 21.3106 12.9378 21.0986C11.6082 20.6041 10.8104 19.1912 10.6553 18.0844C10.6553 18.0373 10.6109 17.9902 10.5445 17.9666C10.478 17.9666 10.2564 17.8724 9.96829 16.8127C9.74668 15.9885 9.83532 15.7059 9.92396 15.5882C9.96829 15.5175 10.0569 15.4704 10.1456 15.494H10.1899C10.2564 15.494 10.3007 15.4469 10.3229 15.3763C10.3229 15.3527 10.4558 13.5865 11.4531 12.9507C11.9406 12.6446 12.5832 12.6446 13.3367 12.9978C14.888 13.7043 16.0182 13.6572 16.7273 13.4923C17.5251 14.1046 17.3035 15.1172 17.237 15.3056V15.3292C17.2148 15.3763 17.237 15.4234 17.2592 15.4469C17.2813 15.4704 17.3256 15.494 17.37 15.494C17.4586 15.4704 17.5694 15.5175 17.6359 15.5882C17.7024 15.6824 17.8132 15.9885 17.5916 16.8127C17.3035 17.8724 17.0819 17.9666 17.0154 17.9666C16.9046 18.0137 16.8603 18.0608 16.8603 18.1079Z" fill="#F53743"/>
<path fill-rule="evenodd" clip-rule="evenodd" d="M34 17C34 26.3888 26.3888 34 17 34C7.61116 34 0 26.3888 0 17C0 7.61116 7.61116 0 17 0C26.3888 0 34 7.61116 34 17ZM20.3838 22.7706C20.3616 22.747 20.3395 22.7294 20.3173 22.7117C20.2952 22.694 20.273 22.6764 20.2508 22.6528C19.2315 22.0641 18.1456 21.6167 17.0154 21.3577C16.9932 21.3577 16.9711 21.3341 16.9711 21.3106V20.6041C17.37 20.0625 17.658 19.4502 17.8353 18.7908C18.2749 18.3237 18.4747 17.6017 18.5861 17.1994L18.5888 17.1895C18.7661 16.5537 18.9434 15.6117 18.4558 14.9524L18.4337 14.9288C18.6553 13.7514 18.9434 10.9726 16.9711 9.58325C17.1927 9.32421 17.3256 8.99452 17.3256 8.64129C17.3256 8.61774 17.3035 8.57065 17.2813 8.5471C17.2592 8.52355 17.2148 8.5 17.1927 8.5C17.1927 8.5 17.1762 8.50165 17.1495 8.5046C16.8132 8.54188 14.6007 8.78713 13.4918 8.5471C12.2952 8.28806 10.9212 9.25356 10.6553 10.2662C10.1899 10.3368 9.76884 10.5723 9.48075 10.9726C8.94889 11.6791 8.77161 12.8094 8.99322 14.3166C9.01538 14.5049 9.03754 14.6933 9.0597 14.9053L9.03754 14.9288C8.57216 15.5882 8.72729 16.5301 8.90457 17.166L8.9073 17.1758C9.01864 17.5782 9.21843 18.3001 9.65804 18.7673C9.83532 19.4266 10.1234 20.0389 10.5223 20.6041V21.3106C10.5223 21.3341 10.5001 21.3577 10.478 21.3577C9.34779 21.6167 8.26191 22.0641 7.24252 22.6528C6.97659 22.8177 6.86579 23.1945 7.02091 23.477C7.04308 23.5241 7.0874 23.5712 7.13172 23.6183C8.94889 25.3845 11.2979 26.35 13.7578 26.35C16.2176 26.35 18.5666 25.3845 20.3838 23.6419C20.6054 23.3828 20.6054 23.0061 20.3838 22.7706ZM28.0892 20.6697C26.9413 21.5877 25.4825 22.1 23.9519 22.1C22.4453 22.1 20.9625 21.5877 19.8146 20.6271L19.7429 20.563C19.6472 20.4136 19.7189 20.2215 19.8863 20.1361C20.5081 19.8159 21.2017 19.6024 21.8952 19.453C21.9076 19.453 21.9136 19.453 21.9165 19.45C21.9191 19.4472 21.9191 19.4419 21.9191 19.4316V19.0687C21.68 18.7699 21.5126 18.4497 21.393 18.1081C21.1419 17.884 21.0215 17.5237 20.9487 17.3058C20.9452 17.2954 20.9419 17.2853 20.9386 17.2756C20.819 16.934 20.7234 16.443 21.0104 16.1015L21.0343 16.0801C21.0308 16.0646 21.0273 16.0494 21.0239 16.0346C21.0039 15.948 20.9864 15.8724 20.9864 15.7813C20.8669 14.9914 20.9625 14.3937 21.2973 14.0308C21.4887 13.8387 21.7517 13.7106 22.0387 13.6679C22.2061 13.1556 23.067 12.6433 23.8084 12.7713C24.4805 12.8875 25.8013 12.7755 26.06 12.7536C26.0866 12.7513 26.102 12.75 26.1043 12.75C26.1282 12.75 26.1521 12.75 26.176 12.7927C26.1999 12.7927 26.1999 12.814 26.1999 12.8354C26.1999 13.0275 26.1282 13.1983 25.9847 13.3264C27.2043 14.0522 27.0369 15.5038 26.8934 16.1228L26.9174 16.1442C27.2043 16.4857 27.1087 16.9767 26.9891 17.3183C26.9413 17.5104 26.8217 17.8946 26.5347 18.1508C26.4391 18.4924 26.2477 18.8126 26.0086 19.0901V19.453C26.0086 19.453 26.0086 19.4743 26.0325 19.4743C26.726 19.6237 27.4196 19.8372 28.0414 20.1574L28.1131 20.2215C28.2327 20.3495 28.2327 20.5417 28.0892 20.6697Z" fill="#F53743"/>
</svg>
