<?xml version="1.0" encoding="utf-8"?>
<!-- Generator: Adobe Illustrator 22.0.0, SVG Export Plug-In . SVG Version: 6.00 Build 0)  -->
<svg version="1.1" id="Layer_1" xmlns="http://www.w3.org/2000/svg" xmlns:xlink="http://www.w3.org/1999/xlink" x="0px" y="0px"
	 viewBox="0 0 96 93" style="enable-background:new 0 0 96 93;" xml:space="preserve">
<style type="text/css">
	.st0{fill:#F53743;}
</style>
<g>
	<path class="st0" d="M48,43.3c9.7,0,17.7-7.9,17.7-17.7C65.7,15.9,57.7,8,48,8s-17.7,7.9-17.7,17.7C30.3,35.4,38.3,43.3,48,43.3z"
		/>
	<path class="st0" d="M63.4,44.3c-0.6,0-1.1,0.2-1.5,0.6c-3.7,3.6-8.7,5.6-13.9,5.6s-10.1-2-13.9-5.6c-0.4-0.4-1-0.6-1.5-0.6
		c-10.9,0.8-19.5,10-19.5,21V75c0,7.2,5.8,13,13,13h43.7c7.2,0,13-5.8,13-13v-9.7C82.9,54.3,74.3,45.1,63.4,44.3z M39.7,72.6
		c0.8,0.8,0.8,2,0,2.8c-0.4,0.4-0.9,0.6-1.4,0.6s-1-0.2-1.4-0.6l-5.1-5.1c-0.8-0.8-0.8-2,0-2.8l5.1-5.1c0.8-0.8,2-0.8,2.8,0
		s0.8,2.1,0,2.9L36,69L39.7,72.6z M53.1,59.6l-5.6,19.9c-0.2,0.9-1,1.5-1.9,1.5c-0.1,0-0.3,0-0.5-0.1c-1.1-0.3-1.7-1.4-1.4-2.5
		l5.6-19.9c0.3-1.1,1.4-1.7,2.5-1.4C52.8,57.4,53.4,58.5,53.1,59.6z M64.2,70.4l-5.1,5.1c-0.4,0.4-0.9,0.6-1.4,0.6s-1-0.2-1.4-0.6
		c-0.8-0.8-0.8-2,0-2.8L60,69l-3.7-3.8c-0.8-0.8-0.8-2,0-2.8s2-0.8,2.8,0l5.1,5.2C65,68.4,65,69.6,64.2,70.4z"/>
</g>
</svg>
