<?xml version="1.0" encoding="utf-8"?>
<!-- Generator: Adobe Illustrator 22.0.0, SVG Export Plug-In . SVG Version: 6.00 Build 0)  -->
<svg version="1.1" id="Layer_1" xmlns="http://www.w3.org/2000/svg" xmlns:xlink="http://www.w3.org/1999/xlink" x="0px" y="0px"
	 viewBox="0 0 100 100.7" style="enable-background:new 0 0 100 100.7;" xml:space="preserve">
<style type="text/css">
	.st0{fill:#F53743;}
</style>
<path class="st0" d="M80.9,28.9l-9.8-9.8c-1.7-1.8-3.1-1.8-4.9,0L55.7,29.7c-1.8,1.8-1.8,3.1,0,4.9l9.8,9.8c1.8,1.8,3.1,1.8,4.9,0
	l10.6-10.6C82.6,32,82.6,30.6,80.9,28.9z"/>
<path class="st0" d="M81.3,25.3c0.2,0.2,0.5,0.2,0.7,0l2.3-2.4c1.1-1.2,1.1-2.2,0-3.4c-0.8-0.8-1.2-1.3-1.8-1.9
	c-0.6-0.6-1.1-1.1-1.9-1.8c-1.2-1.1-2.2-1.1-3.4,0L74.7,18c-0.2,0.2-0.2,0.5,0,0.7L81.3,25.3z"/>
<path class="st0" d="M21,6.3C26.8,9.7,39,17,52,27.8c0.2,0.2,0.5,0.2,0.7,0l10.1-10.2c0.2-0.2,0.2-0.5-0.1-0.6
	C45.4,5.3,28.7,4.8,21.2,5.1C19.7,5.1,19.6,5.6,21,6.3z"/>
<path class="st0" d="M83.1,37.2C83,37,82.7,37,82.5,37.2L72.3,47.3c-0.2,0.2-0.2,0.5,0,0.7C83,61,90.3,73.2,93.7,79.1
	c0.8,1.3,1.2,1.2,1.3-0.3C95.2,71.3,94.7,54.6,83.1,37.2z"/>
<path class="st0" d="M55.3,38.3c-0.2-0.2-0.5-0.2-0.7,0L8,80.6c-0.1,0.1-0.1,0.1-0.2,0.2c-3.8,3.8-3.8,7.6,0,11.3s7.6,3.8,11.3,0
	c0.1-0.1,0.1-0.2,0.2-0.2c0,0,38.4-42.1,42.4-46.5c0.2-0.2,0.2-0.5,0-0.7L55.3,38.3z"/>
</svg>
