<?xml version="1.0" encoding="utf-8"?>
<!-- Generator: Adobe Illustrator 22.0.0, SVG Export Plug-In . SVG Version: 6.00 Build 0)  -->
<svg version="1.1" id="Layer_1" xmlns="http://www.w3.org/2000/svg" xmlns:xlink="http://www.w3.org/1999/xlink" x="0px" y="0px"
	 viewBox="0 0 108 91" style="enable-background:new 0 0 108 91;" xml:space="preserve">
<style type="text/css">
	.st0{fill:#F53743;}
</style>
<path class="st0" d="M34.1,87.9c11.1,0,21.7-4.1,29.9-11.5c1-1,1.1-2.6,0.1-3.6c-0.2-0.2-0.4-0.3-0.6-0.5c-4.6-2.5-9.5-4.4-14.6-5.5
	c-0.1,0-0.2-0.1-0.2-0.2v-3c1.8-2.3,3.1-4.9,3.9-7.7c2-2,2.9-5.1,3.4-6.8c0.8-2.7,1.6-6.7-0.6-9.5l-0.1-0.1c1-5,2.3-16.8-6.6-22.7
	c1-1.1,1.6-2.5,1.6-4c0-0.1-0.1-0.3-0.2-0.4c-0.1-0.1-0.3-0.1-0.4-0.1c-0.1,0-11.3,1.3-16.7,0.2s-11.6,3.1-12.9,7.3
	c-2.1,0.3-4,1.3-5.3,3c-2.4,3-3.2,7.8-2.2,14.2c0.1,0.8,0.2,1.6,0.3,2.5l-0.1,0.1c-2.1,2.8-1.4,6.8-0.6,9.5c0.5,1.7,1.4,4.8,3.4,6.8
	c0.8,2.8,2.1,5.4,3.9,7.8v3c0,0.1-0.1,0.2-0.2,0.2c-5.1,1.1-10,3-14.6,5.5c-1.2,0.7-1.7,2.3-1,3.5c0.1,0.2,0.3,0.4,0.5,0.6
	C12.4,83.8,23.1,87.9,34.1,87.9z M34.1,77.5c-4.7,0.1-9.2-2.2-12-6c1.2-0.7,2.2-1.8,2.6-3.1c1.2,0.8,2.6,1.5,4,2
	c3.5,1.2,7.3,1.2,10.8,0c1.4-0.5,2.8-1.2,4-2c0.5,1.3,1.4,2.5,2.6,3.2C43.3,75.4,38.9,77.6,34.1,77.5z M17,47.6
	c-1-3.5-0.6-4.7-0.2-5.2c0.2-0.3,0.6-0.5,1-0.4H18c0.3,0,0.5-0.2,0.6-0.5c0-0.1,0.6-7.6,5.1-10.3c2.2-1.4,5.1-1.3,8.5,0.1
	c7,3,12.1,2.8,15.3,2.1c3.6,2.7,2.6,6.9,2.3,7.7v0.1c-0.1,0.2,0,0.4,0.1,0.5c0.1,0.1,0.3,0.2,0.5,0.2c0.4-0.1,0.9,0.1,1.2,0.4
	c0.3,0.4,0.8,1.7-0.2,5.2c-1.3,4.5-2.3,4.9-2.6,4.9c-0.2,0-0.4,0.2-0.5,0.5c-0.7,4.8-4.5,10.7-10.3,12.7c-2.4,0.9-5,0.9-7.4,0
	c-6-2.1-9.6-8.1-10.3-12.8c0-0.2-0.2-0.4-0.5-0.5C19.3,52.5,18.3,52.1,17,47.6z M66.4,61h16.9c10.7,0,19.3-8.6,19.3-19.3
	c0-10.7-8.6-19.3-19.3-19.3C72.7,22.4,64,31,64,41.7c0,0,0,0,0,0v16.9C64,59.9,65,61,66.4,61C66.4,61,66.4,61,66.4,61z M76.1,39h4.5
	v-4.5c0-1.5,1.2-2.7,2.7-2.7S86,33,86,34.5V39h4.5c1.5,0,2.7,1.2,2.7,2.7v0l0,0c0,1.5-1.2,2.7-2.7,2.7l0,0H86v4.5
	c0,1.5-1.2,2.7-2.7,2.7s-2.7-1.2-2.7-2.7v-4.5h-4.5c-1.5,0-2.7-1.2-2.7-2.7C73.3,40.2,74.5,39,76.1,39L76.1,39z"/>
</svg>
