<?xml version="1.0" encoding="utf-8"?>
<!-- Generator: Adobe Illustrator 22.0.0, SVG Export Plug-In . SVG Version: 6.00 Build 0)  -->
<svg version="1.1" id="Isolation_Mode" xmlns="http://www.w3.org/2000/svg" xmlns:xlink="http://www.w3.org/1999/xlink" x="0px"
	 y="0px" viewBox="0 0 215 170" style="enable-background:new 0 0 215 170;" xml:space="preserve">
<style type="text/css">
	.st0{fill:#F53743;}
</style>
<path class="st0" d="M200.8,62.8c0-0.2,0-0.4,0-0.6c0-0.2,0-0.4,0-0.6c0-22.4-18.2-40.6-40.6-40.6c-9.3,0-15.7,3.2-22.6,8.4
	c-8.8-2.5-13.1-4.7-25-5.4h-7.4c-11.9,0.7-16.2,2.8-25,5.4C73.5,24.2,67,21,57.8,21c-22.4,0-40.6,18.2-40.6,40.6c0,0.2,0,0.4,0,0.6
	c0,0.2,0,0.4,0,0.6L13,129.1c0,10.5,8.5,19,19,19h13.3l28.6-45.6h31.5h7.4h31.5l28.6,45.6h13.3c10.5,0,19-8.5,19-19L200.8,62.8z
	 M65.9,75.1H53.6v12.3h-13V75.1H28.3v-13h12.3V49.8h13v12.3h12.3V75.1z M165.4,43.7c4.9,0,8.8,3.9,8.8,8.8s-3.9,8.8-8.8,8.8
	s-8.8-3.9-8.8-8.8S160.5,43.7,165.4,43.7z M142.3,66.7c0-4.9,3.9-8.8,8.8-8.8c4.9,0,8.8,3.9,8.8,8.8s-3.9,8.8-8.8,8.8
	C146.3,75.5,142.3,71.6,142.3,66.7z M165.4,89.7c-4.9,0-8.8-3.9-8.8-8.8c0-4.9,3.9-8.8,8.8-8.8c4.9,0,8.8,3.9,8.8,8.8
	C174.2,85.8,170.2,89.7,165.4,89.7z M179.6,75.5c-4.9,0-8.8-3.9-8.8-8.8c0-4.9,3.9-8.8,8.8-8.8s8.8,3.9,8.8,8.8
	C188.4,71.6,184.4,75.5,179.6,75.5z"/>
</svg>
