<?xml version="1.0" encoding="utf-8"?>
<!-- Generator: Adobe Illustrator 22.0.0, SVG Export Plug-In . SVG Version: 6.00 Build 0)  -->
<svg version="1.1" id="Capa_1" xmlns="http://www.w3.org/2000/svg" xmlns:xlink="http://www.w3.org/1999/xlink" x="0px" y="0px"
	 viewBox="0 0 944.5 719.8" style="enable-background:new 0 0 944.5 719.8;" xml:space="preserve">
<style type="text/css">
	.st0{fill:#F53743;}
</style>
<path class="st0" d="M824.2,30.9h-11.4h-15.5h-15.5H663.5H228.8h-57h-48h-8.9H85.1c-15.8,0-29.9,7.3-39.1,18.8
	c-4.2,5.3-7.4,11.4-9.2,18.1C35.7,72,35,76.4,35,80.9v6v57V638c0,27.6,22.4,50,50,50h739.1c27.6,0,50-22.4,50-50V498.5H577.4
	c-46.9,0-85-38.1-85-85v-45.8v-15.5v-15.5v-34.4c0-23,9.2-43.9,24.1-59.2c13.2-13.6,30.9-22.8,50.7-25.1c3.3-0.4,6.7-0.6,10.1-0.6
	h255.2H848h15.5h10.6V80.9C874.2,53.3,851.8,30.9,824.2,30.9z"/>
<path class="st0" d="M909.2,265.2c-5-4.6-10.9-8.1-17.5-10.4c-5.1-1.7-10.5-2.7-16.2-2.7h-1.3h-1h-15.5h-55.9H577.4
	c-27.6,0-50,22.4-50,50V327v15.5V358v55.4c0,27.6,22.4,50,50,50h296.8h1.3c5.7,0,11.1-1,16.2-2.7c6.6-2.2,12.5-5.8,17.5-10.4
	c10-9.1,16.3-22.3,16.3-36.9V302.1C925.5,287.5,919.2,274.3,909.2,265.2z M681.8,367.7c0,13.8-11.2,25-25,25h-16.6
	c-13.8,0-25-11.2-25-25v-16.6c0-8,3.7-15.1,9.6-19.6c4.3-3.3,9.6-5.4,15.4-5.4h4.2h12.4c13.8,0,25,11.2,25,25L681.8,367.7
	L681.8,367.7z"/>
</svg>
