<?xml version="1.0" encoding="utf-8"?>
<!-- Generator: Adobe Illustrator 22.0.0, SVG Export Plug-In . SVG Version: 6.00 Build 0)  -->
<svg version="1.1" id="Layer_1" xmlns="http://www.w3.org/2000/svg" xmlns:xlink="http://www.w3.org/1999/xlink" x="0px" y="0px"
	 viewBox="0 0 100 97" style="enable-background:new 0 0 100 97;" xml:space="preserve">
<style type="text/css">
	.st0{fill:#F53743;}
</style>
<path class="st0" d="M23.9,51.8h52.2c12.8,0,17.9-3.3,18.9-13v-6.7c0-5.4-2.1-7.6-7.6-7.6H12.6c-5.4,0-7.6,2.1-7.6,7.6v6.7
	C6,48.6,11.1,51.8,23.9,51.8z"/>
<path class="st0" d="M76.1,55.6H58.6V69c0,2-0.8,2.8-2.8,2.8H44.3c-2,0-2.8-0.8-2.8-2.8V55.6H23.9c-8.3,0-14.9-1.3-18.9-6.2V83
	c0,5.4,2.1,7.6,7.6,7.6h74.9c5.4,0,7.6-2.1,7.6-7.6V49.4C91.1,54.3,84.4,55.6,76.1,55.6z"/>
<path class="st0" d="M46.2,55.6c-0.7,0-0.9,0.3-0.9,0.9v10.5c0,0.7,0.3,0.9,0.9,0.9h7.7c0.7,0,0.9-0.3,0.9-0.9V56.6
	c0-0.7-0.3-0.9-0.9-0.9H46.2z"/>
<path class="st0" d="M46.4,14.6h7.2c6.2,0,6.7,1,6.7,7.2h6.6c0-11.6-0.7-12.4-12.4-12.4h-9.1c-11.6,0-12.4,0.7-12.4,12.4h6.6
	C39.7,15.6,40.2,14.6,46.4,14.6z"/>
</svg>
