<svg width="800" height="901" viewBox="0 0 800 901" fill="none" xmlns="http://www.w3.org/2000/svg">
<path d="M1342.94 132.325C1335.45 86.1728 1309.23 43.7628 1268.02 15.0736C1185.6 -42.3046 1071.97 -22.347 1014.53 59.9784L764.781 416.721C746.05 444.163 708.589 450.4 681.117 431.69C653.645 411.732 647.401 374.311 666.132 346.87L1019.52 -162.051C1048.24 -203.213 1058.23 -251.86 1049.49 -298.012C1042 -344.164 1015.77 -386.574 974.567 -415.263C892.151 -472.642 778.517 -452.684 721.076 -370.359L33.0288 615.051C4.3081 656.213 -5.6817 704.86 3.05937 751.012C11.8004 797.164 36.7749 839.574 77.9828 868.263C160.399 925.641 274.033 905.684 331.474 823.359L527.524 545.199C546.254 517.757 584.965 511.52 611.188 530.231C638.66 548.941 644.904 586.361 626.173 613.803C597.452 654.966 587.462 703.613 596.203 749.765C604.945 795.917 629.919 838.327 671.127 867.016C753.543 924.394 867.177 904.437 924.618 822.111L1174.36 465.368L1312.97 267.039C1341.69 227.124 1351.68 177.23 1342.94 132.325Z" fill="#F53743"/>
</svg>
